<?xml version="1.0" standalone="no"?>
<!DOCTYPE svg PUBLIC "-//W3C//DTD SVG 20010904//EN"
 "http://www.w3.org/TR/2001/REC-SVG-20010904/DTD/svg10.dtd">
<svg version="1.0" xmlns="http://www.w3.org/2000/svg"
 width="3072.000000pt" height="3072.000000pt" viewBox="0 0 3072.000000 3072.000000"
 preserveAspectRatio="xMidYMid meet">
<metadata>
Created by potrace 1.14, written by Peter Selinger 2001-2017
</metadata>
<g transform="translate(0.000000,3072.000000) scale(0.100000,-0.100000)"
fill="#000000" stroke="none">
<path d="M14136 30582 c-3 -2 -24 -6 -48 -8 -61 -5 -91 -10 -108 -17 -8 -3
-31 -8 -50 -12 -51 -8 -60 -10 -110 -25 -25 -8 -47 -14 -50 -15 -3 0 -39 -12
-80 -25 -90 -28 -78 -25 -115 -35 -16 -4 -36 -12 -42 -18 -7 -5 -13 -6 -13 -2
0 4 -6 2 -13 -4 -8 -6 -22 -12 -33 -14 -10 -2 -32 -10 -49 -17 -16 -7 -34 -14
-40 -14 -5 -1 -19 -6 -30 -12 -11 -6 -32 -14 -47 -18 -16 -3 -28 -11 -28 -17
0 -6 -4 -7 -10 -4 -5 3 -22 0 -37 -8 -38 -20 -141 -67 -146 -67 -2 0 -26 -10
-53 -22 -27 -12 -52 -21 -56 -20 -5 1 -8 -3 -8 -8 0 -5 -5 -10 -11 -10 -6 0
-39 -13 -73 -29 -33 -15 -81 -37 -106 -48 -25 -12 -102 -49 -172 -82 -70 -34
-130 -61 -134 -61 -4 1 -10 -2 -13 -7 -7 -10 -77 -44 -87 -43 -4 1 -10 -2 -13
-7 -3 -5 -19 -16 -36 -25 -16 -8 -73 -37 -125 -64 -52 -26 -98 -52 -101 -57
-3 -5 -8 -8 -10 -7 -2 2 -49 -20 -104 -47 -55 -28 -104 -51 -109 -51 -5 0 -12
-4 -15 -9 -7 -10 -98 -55 -107 -53 -4 1 -10 -2 -13 -7 -3 -5 -32 -21 -63 -37
-32 -15 -66 -37 -75 -50 -10 -12 -26 -25 -35 -29 -10 -3 -18 -16 -18 -28 0
-14 -5 -19 -14 -16 -19 8 -46 -35 -51 -81 -2 -20 -5 -39 -6 -42 -1 -3 -1 -8 0
-12 0 -4 -3 -18 -8 -31 -27 -70 -35 -312 -13 -372 32 -85 94 -140 150 -133 15
2 29 5 32 8 3 3 35 21 72 40 37 19 68 38 68 41 0 3 16 11 35 19 19 8 35 18 35
24 0 5 3 6 6 3 4 -4 19 2 33 11 14 10 49 29 76 43 28 13 52 26 55 29 3 3 30
16 60 30 30 14 57 27 60 30 8 9 77 40 89 40 6 0 11 5 11 10 0 6 5 10 12 10 6
0 52 20 102 44 232 113 390 186 402 186 8 0 14 4 14 9 0 5 9 13 21 16 11 4 63
27 114 51 52 24 99 44 105 44 5 0 10 5 10 10 0 6 6 10 13 10 8 0 40 13 73 29
142 70 254 121 264 121 5 0 10 4 10 10 0 5 7 7 15 4 8 -4 15 -2 15 2 0 5 15
15 33 23 17 7 53 24 79 37 25 12 49 20 52 17 3 -4 6 -1 6 5 0 7 4 12 10 12 5
0 42 16 83 35 41 19 79 35 85 35 5 0 12 5 14 10 2 6 13 12 26 13 12 0 22 4 22
8 0 4 16 13 35 19 19 6 33 15 30 20 -3 4 2 11 11 14 10 4 13 2 8 -6 -5 -7 -3
-8 7 -2 8 5 16 9 19 10 3 0 19 6 35 13 61 26 253 17 325 -16 8 -3 17 -7 20 -8
72 -19 237 -97 296 -140 22 -16 55 -49 72 -74 93 -133 121 -169 126 -164 3 4
6 0 6 -8 0 -9 9 -25 20 -37 11 -12 20 -25 20 -31 0 -5 3 -11 8 -13 11 -4 132
-177 132 -187 0 -5 3 -11 8 -13 4 -1 23 -28 42 -58 19 -30 37 -57 40 -60 3 -3
19 -27 35 -55 17 -27 34 -57 40 -67 51 -84 75 -127 75 -136 0 -5 6 -12 14 -15
7 -3 17 -18 21 -34 3 -15 10 -30 15 -33 14 -9 195 -389 192 -402 -1 -5 2 -8 8
-8 6 0 9 -3 8 -7 -3 -8 15 -58 34 -98 5 -12 10 -27 11 -35 2 -8 5 -19 8 -25 6
-10 33 -85 34 -95 0 -3 3 -9 6 -15 4 -5 10 -26 14 -45 4 -19 12 -41 17 -47 6
-7 8 -13 4 -13 -3 0 -1 -11 4 -26 6 -14 13 -39 16 -57 3 -18 7 -36 8 -42 1 -5
4 -14 8 -20 3 -5 9 -30 13 -55 4 -25 10 -49 14 -55 4 -5 9 -28 10 -50 2 -22 6
-42 9 -45 4 -3 7 -16 6 -30 0 -14 2 -29 5 -35 6 -12 8 -22 17 -95 3 -30 8 -57
9 -60 2 -3 7 -42 10 -85 4 -44 9 -96 11 -115 2 -19 6 -71 9 -115 2 -44 7 -113
10 -153 10 -120 15 -464 8 -476 -4 -6 -6 -66 -5 -133 1 -68 0 -123 -2 -123 -2
0 -33 16 -68 36 -95 54 -348 176 -483 232 -66 28 -159 72 -206 100 -47 27
-114 60 -147 74 -34 14 -59 27 -56 31 3 3 3 38 -1 76 -12 125 -62 164 -159
126 -59 -23 -96 -59 -103 -100 -6 -40 -18 -43 -82 -20 -37 13 -62 12 -214 -1
-402 -35 -726 -103 -1152 -243 -129 -42 -371 -131 -445 -163 -25 -11 -58 -25
-75 -33 -16 -7 -82 -35 -145 -63 -63 -27 -137 -60 -165 -72 -27 -12 -131 -53
-230 -91 -183 -71 -227 -98 -204 -126 7 -8 18 -12 26 -9 20 8 16 1 -24 -41
-54 -55 -72 -78 -210 -260 -68 -90 -121 -163 -117 -163 4 0 1 -6 -7 -12 -21
-18 -74 -89 -82 -110 -4 -10 -11 -18 -17 -18 -5 0 -10 -6 -10 -14 0 -8 -7 -17
-16 -20 -8 -3 -12 -10 -9 -16 3 -5 2 -10 -3 -10 -6 0 -24 -22 -42 -50 -18 -27
-36 -50 -42 -50 -5 0 -6 -5 -3 -10 3 -6 0 -12 -7 -15 -8 -3 -25 -23 -38 -45
-14 -23 -32 -40 -43 -40 -10 0 -15 5 -12 10 3 6 2 10 -3 10 -8 0 -41 25 -147
108 -5 4 -32 23 -60 42 -27 19 -52 37 -55 40 -22 22 -79 58 -84 53 -3 -4 -6
-2 -6 3 0 5 -18 20 -40 34 -22 14 -40 28 -40 32 0 5 -7 8 -15 8 -8 0 -15 5
-15 10 0 6 -4 10 -9 10 -5 0 -56 30 -113 68 -137 88 -137 88 -183 113 -22 12
-42 24 -45 28 -6 8 -77 46 -200 108 -52 26 -96 51 -98 56 -2 4 -10 7 -17 7 -7
0 -30 9 -52 19 -53 27 -172 81 -178 81 -2 0 -28 11 -57 24 -29 14 -62 26 -73
28 -11 2 -23 7 -26 11 -3 5 -12 9 -20 11 -8 1 -31 10 -53 19 -21 9 -44 17 -50
17 -6 1 -29 9 -51 20 -22 11 -47 19 -55 20 -9 0 -21 5 -28 12 -7 7 -12 9 -12
6 0 -4 -17 0 -37 8 -20 9 -46 18 -57 21 -31 6 -38 9 -70 22 -16 6 -36 13 -45
14 -9 1 -22 6 -28 10 -7 5 -13 6 -13 3 0 -3 -18 1 -40 9 -22 8 -42 14 -45 15
-3 0 -6 0 -7 1 -2 0 -16 3 -33 5 -16 2 -48 8 -70 13 -81 17 -278 21 -430 8
-49 -5 -117 -10 -150 -13 -33 -3 -71 -7 -85 -10 -14 -3 -41 -7 -60 -10 -19 -3
-46 -7 -60 -11 -14 -3 -32 -7 -40 -8 -13 -1 -59 -10 -115 -21 -11 -2 -47 -11
-80 -19 -33 -9 -68 -17 -78 -20 -10 -2 -27 -7 -37 -10 -10 -3 -27 -7 -37 -10
-56 -11 -119 -29 -129 -37 -7 -5 -16 -8 -20 -7 -5 1 -16 -1 -24 -4 -26 -10
-105 -31 -112 -29 -5 1 -8 -2 -8 -6 0 -4 -8 -8 -17 -9 -10 -1 -31 -7 -48 -14
-16 -7 -34 -13 -40 -13 -13 -2 -87 -27 -100 -35 -5 -3 -14 -6 -20 -6 -5 -1
-17 -4 -25 -7 -8 -3 -55 -20 -105 -38 -112 -41 -360 -140 -440 -176 -33 -15
-64 -28 -70 -28 -5 -1 -41 -17 -80 -35 -38 -19 -74 -35 -80 -36 -5 -2 -35 -14
-65 -28 -30 -14 -80 -36 -110 -50 -180 -81 -286 -131 -294 -138 -6 -5 -16 -9
-24 -9 -8 0 -26 -9 -40 -19 -15 -10 -31 -20 -37 -21 -15 -3 -179 -83 -185 -90
-3 -3 -21 -12 -40 -20 -19 -7 -47 -22 -62 -32 -16 -11 -28 -16 -28 -11 0 4 -4
3 -8 -3 -4 -7 -23 -19 -42 -28 -44 -20 -118 -62 -136 -77 -8 -6 -14 -8 -14 -4
0 5 -8 1 -17 -7 -10 -8 -67 -43 -126 -78 -59 -34 -113 -68 -120 -74 -7 -7 -16
-13 -20 -13 -15 -2 -97 -57 -97 -66 0 -4 -4 -6 -9 -3 -5 3 -20 -3 -33 -14 -14
-11 -28 -16 -32 -13 -3 4 -13 -2 -21 -13 -33 -43 -105 -154 -105 -163 0 -5 -6
-21 -14 -37 -9 -16 -12 -34 -7 -43 5 -9 9 -52 10 -96 3 -144 17 -255 31 -255
4 0 13 -13 19 -30 5 -16 15 -30 21 -30 6 0 8 -4 5 -10 -3 -5 1 -10 9 -10 9 0
16 -4 16 -8 0 -18 79 -52 119 -52 59 0 104 22 137 66 34 48 56 69 114 114 25
19 52 42 61 52 9 10 21 18 27 18 6 0 18 10 26 22 9 12 16 18 16 13 0 -6 5 -2
11 8 5 9 16 17 24 17 8 0 18 6 22 13 4 8 36 33 70 56 35 24 65 47 69 52 3 5
10 7 15 4 5 -4 9 -2 9 3 0 9 113 94 127 95 4 0 13 5 18 12 15 18 212 155 223
155 6 0 13 7 16 16 3 8 10 12 16 9 5 -3 10 -2 10 2 0 5 25 23 55 41 30 18 55
37 55 43 0 5 3 8 8 7 10 -2 71 33 94 55 10 9 20 17 23 17 12 -2 85 44 85 52 0
5 5 6 10 3 6 -3 10 -1 10 4 0 6 4 11 10 11 5 0 38 17 72 38 136 83 507 272
534 272 4 0 16 8 27 18 11 9 18 12 14 6 -3 -6 13 -1 37 11 24 12 54 25 67 30
13 4 26 8 29 9 49 22 197 76 220 81 8 2 16 4 18 5 1 2 5 3 10 5 4 1 20 7 35
13 16 7 34 12 41 12 7 0 16 3 20 8 4 4 11 7 14 8 28 2 122 29 122 34 0 4 6 7
13 7 6 0 59 12 117 28 58 15 112 29 120 30 8 1 22 5 30 8 15 5 54 14 95 21 11
2 20 4 20 6 0 1 14 4 30 6 45 8 70 12 73 15 4 3 59 13 137 25 17 3 37 7 45 9
8 2 40 7 70 10 30 4 57 8 60 10 3 2 42 6 85 9 183 14 222 17 252 21 18 2 35 0
38 -5 3 -5 18 -5 33 -2 23 6 56 7 72 3 3 -1 48 -3 100 -6 52 -2 127 -7 165
-11 39 -4 78 -7 88 -8 9 0 17 -4 17 -9 0 -4 4 -6 9 -2 27 16 328 -69 476 -136
28 -12 53 -22 58 -21 4 1 7 -2 7 -8 0 -6 3 -9 8 -8 4 1 28 -8 55 -19 26 -12
51 -23 55 -23 4 -1 15 -9 25 -17 9 -9 17 -13 17 -8 0 4 7 2 14 -5 8 -6 52 -31
98 -55 121 -62 152 -79 158 -86 3 -3 20 -12 38 -20 17 -8 32 -17 32 -21 0 -5
6 -8 14 -8 7 0 19 -7 26 -15 7 -9 15 -13 18 -11 3 3 18 -6 34 -19 16 -14 36
-25 44 -25 8 0 14 -3 14 -8 0 -4 16 -16 35 -26 19 -11 35 -23 35 -28 0 -4 6
-8 13 -8 12 0 86 -50 115 -77 6 -6 21 -15 32 -18 11 -3 20 -11 20 -16 0 -5 5
-9 11 -9 6 0 16 -6 23 -12 7 -7 51 -42 99 -78 80 -60 98 -83 69 -86 -7 -1 -14
-3 -17 -4 -3 -1 -8 -3 -12 -5 -5 -1 -15 -4 -23 -7 -8 -3 -118 -36 -245 -73
-470 -139 -634 -204 -1134 -448 -116 -57 -155 -160 -117 -305 21 -77 60 -139
136 -212 71 -69 109 -90 475 -265 160 -77 391 -184 410 -190 6 -2 20 -6 33
-10 12 -4 22 -12 22 -18 0 -6 3 -8 6 -4 3 3 34 -6 67 -20 34 -14 71 -29 82
-33 122 -47 137 -56 110 -66 -9 -4 -30 -19 -45 -33 -16 -14 -47 -43 -70 -63
-23 -21 -39 -38 -36 -38 4 0 -6 -13 -22 -29 -15 -16 -34 -42 -42 -58 -8 -15
-17 -30 -20 -33 -9 -9 -42 -78 -42 -87 0 -4 -7 -16 -15 -25 -9 -10 -13 -18 -9
-18 3 0 0 -13 -9 -30 -9 -16 -13 -30 -9 -30 4 0 1 -6 -5 -13 -6 -8 -12 -23
-14 -35 -2 -12 -6 -24 -9 -28 -4 -3 -4 -12 -1 -20 3 -8 1 -14 -4 -14 -5 0 -9
-10 -8 -22 1 -13 -2 -29 -8 -35 -5 -7 -7 -13 -3 -13 3 0 1 -11 -4 -25 -7 -17
-6 -25 1 -25 8 0 8 -4 0 -14 -7 -8 -14 -34 -16 -58 -2 -24 -4 -45 -5 -48 -1
-3 -2 -21 -2 -40 0 -19 -5 -41 -12 -49 -6 -8 -6 -12 -1 -9 6 4 10 -20 10 -64
l0 -70 -69 -64 c-38 -35 -72 -64 -76 -64 -12 0 1 -124 15 -138 2 -3 -1 -12 -8
-20 -7 -10 -7 -13 -1 -9 11 6 16 -14 29 -103 1 -14 4 -25 5 -25 7 0 6 -156 -1
-161 -5 -3 -6 -10 -2 -16 3 -7 6 -58 6 -114 0 -73 3 -101 11 -97 6 4 3 -3 -8
-15 -15 -17 -16 -23 -5 -27 8 -3 15 -22 17 -43 1 -20 3 -53 5 -72 1 -19 6 -38
11 -42 5 -3 9 -25 9 -47 0 -23 4 -41 9 -41 4 0 8 -5 8 -11 0 -5 -4 -8 -9 -5
-5 4 -4 -5 2 -19 7 -14 16 -25 20 -25 5 0 5 -5 2 -10 -4 -6 -1 -18 7 -27 11
-14 11 -16 -2 -9 -9 4 -8 2 2 -7 10 -8 15 -16 12 -19 -3 -3 2 -22 10 -42 11
-26 12 -35 3 -31 -7 4 -5 1 4 -7 9 -7 15 -21 13 -31 -1 -9 1 -15 6 -12 14 9
34 -53 21 -68 -8 -10 -7 -14 4 -14 8 0 12 4 9 9 -3 4 -3 8 0 8 3 0 13 -17 21
-37 9 -21 21 -40 26 -44 6 -3 11 -22 12 -42 1 -31 3 -33 14 -19 12 15 12 15 6
-2 -5 -14 -3 -17 7 -11 10 6 12 3 8 -13 -4 -15 -2 -19 8 -15 8 3 14 -1 14 -10
0 -9 9 -19 21 -22 15 -5 17 -10 9 -20 -8 -9 -6 -12 7 -12 34 0 41 -3 39 -17
-3 -20 -27 -47 -36 -41 -5 3 -12 0 -16 -6 -4 -7 -3 -9 3 -6 6 4 16 0 23 -8 15
-18 5 -49 -11 -39 -8 5 -9 3 -5 -5 5 -7 15 -10 23 -7 8 3 11 1 8 -4 -3 -6 -12
-10 -20 -10 -8 0 -17 -4 -20 -10 -3 -6 1 -7 9 -4 9 3 16 1 16 -5 0 -6 -5 -11
-10 -11 -7 0 -7 -6 0 -20 14 -26 2 -25 -29 3 -14 12 -20 15 -13 6 6 -9 8 -20
4 -24 -4 -5 -2 -5 5 -1 12 6 26 -9 29 -32 2 -9 -3 -11 -13 -8 -12 5 -13 3 -5
-7 9 -10 8 -17 -1 -26 -9 -10 -8 -11 8 -5 17 7 18 5 8 -8 -7 -8 -10 -18 -6
-21 3 -4 1 -7 -7 -7 -10 0 -10 -3 0 -15 10 -12 9 -15 -6 -15 -15 0 -16 -2 -5
-9 13 -8 13 -12 0 -27 -9 -11 -9 -15 -1 -10 7 4 12 1 12 -9 0 -9 -4 -14 -9
-11 -5 3 -15 -2 -22 -12 -13 -15 -12 -16 3 -4 11 9 18 10 23 2 8 -13 -3 -32
-15 -25 -5 3 -11 1 -15 -4 -3 -6 3 -8 15 -6 22 4 28 -10 8 -18 -10 -4 -9 -6 1
-6 11 -1 11 -4 0 -18 -9 -11 -10 -14 -2 -9 10 5 12 -9 11 -56 -1 -35 2 -69 6
-76 4 -7 4 -16 1 -22 -3 -5 -1 -10 5 -10 6 0 9 -4 5 -9 -3 -5 1 -28 9 -50 9
-29 10 -42 2 -45 -7 -3 -7 -5 2 -5 6 -1 12 -8 12 -17 0 -8 -4 -13 -9 -9 -5 3
-13 1 -16 -5 -4 -6 -3 -10 2 -9 4 1 17 1 28 0 17 -1 18 -3 5 -11 -8 -5 -10
-10 -4 -10 10 0 12 -6 16 -50 1 -11 6 -20 11 -20 5 0 4 -6 -2 -14 -9 -10 -8
-16 4 -26 9 -7 14 -19 11 -27 -3 -7 -1 -13 4 -13 6 0 10 -13 10 -28 0 -15 6
-34 13 -41 10 -11 9 -12 -2 -6 -10 6 -10 2 2 -16 8 -13 14 -36 13 -51 -1 -14
2 -24 6 -22 8 5 12 -10 8 -36 -1 -8 2 -12 6 -7 8 8 34 -57 34 -87 0 -11 3 -16
7 -13 5 6 28 -43 36 -78 1 -5 4 -12 7 -15 12 -12 30 -51 30 -65 0 -8 4 -15 9
-15 5 0 12 -13 16 -30 4 -16 11 -30 17 -30 6 0 9 -3 6 -6 -4 -3 9 -35 28 -70
19 -36 31 -70 28 -76 -4 -6 -3 -8 3 -5 6 4 14 -3 18 -16 9 -27 9 -26 24 -59
14 -27 36 -38 59 -30 10 3 10 7 1 18 -7 8 -9 17 -6 21 4 3 2 14 -3 24 -7 12
-6 20 2 25 6 4 8 3 4 -4 -3 -6 -2 -13 4 -17 5 -3 10 -1 10 4 0 6 5 11 10 11 6
0 9 -3 9 -7 -3 -20 3 -23 24 -13 20 10 21 10 4 -4 -11 -8 -25 -12 -33 -9 -8 3
-14 0 -14 -6 0 -6 6 -10 13 -9 6 2 11 -3 9 -10 -1 -6 1 -11 5 -11 5 1 10 0 13
-1 24 -9 40 -6 40 8 0 22 9 10 14 -19 2 -13 10 -23 17 -21 10 3 10 0 -1 -12
-15 -19 0 -22 18 -4 9 9 12 9 12 0 0 -7 -6 -12 -12 -12 -8 0 -6 -5 4 -11 9 -5
15 -16 12 -24 -3 -7 -1 -22 5 -32 6 -10 11 -13 11 -7 0 6 7 11 15 11 12 0 12
-3 3 -15 -13 -15 -20 -45 -10 -38 8 5 44 -19 43 -28 -2 -16 0 -17 14 -6 20 16
19 34 -1 26 -8 -3 -13 -2 -10 3 3 5 -2 8 -10 7 -9 0 -18 7 -19 17 -2 9 1 17 6
17 5 0 9 -8 10 -17 0 -10 3 -13 6 -6 3 9 10 7 25 -6 16 -16 18 -23 9 -40 -7
-12 -9 -22 -6 -22 3 -1 9 -2 14 -3 5 0 12 -4 16 -8 4 -4 14 -4 23 -1 14 5 15
3 5 -8 -19 -19 -16 -33 3 -15 14 14 18 14 39 -2 14 -9 25 -23 26 -29 1 -7 3
-17 4 -23 1 -5 3 -13 4 -17 1 -5 11 3 23 17 l21 25 -8 -25 c-7 -22 -6 -23 8
-11 9 7 14 18 10 24 -3 6 -1 7 5 3 9 -5 9 -13 2 -27 -8 -15 -8 -19 2 -17 7 2
12 -4 10 -12 -3 -12 0 -12 14 2 15 15 20 13 69 -35 86 -84 89 -86 105 -68 11
11 11 16 2 19 -7 2 -10 8 -6 13 3 5 -2 9 -11 9 -9 0 -13 5 -10 10 3 6 0 10 -7
11 -7 0 -29 19 -48 42 -19 22 -29 37 -22 33 6 -4 12 -3 12 3 0 5 -6 11 -12 14
-7 3 -3 4 10 4 24 -1 27 -8 11 -24 -8 -8 -7 -13 2 -18 7 -5 10 -4 6 1 -3 5 1
18 9 29 8 10 14 13 14 7 0 -7 9 -12 21 -12 11 0 17 -4 14 -10 -3 -5 3 -10 14
-10 12 0 21 -5 21 -11 0 -5 4 -8 9 -5 5 3 14 -1 21 -9 7 -8 21 -15 32 -15 10
0 21 -7 24 -15 4 -8 10 -13 14 -10 4 3 20 -5 36 -17 15 -13 25 -17 21 -11 -7
11 73 -23 83 -36 3 -3 12 -7 20 -9 31 -6 70 -25 70 -34 0 -5 5 -6 10 -3 6 3
16 3 23 -2 6 -4 21 -9 31 -10 11 -2 33 -12 50 -22 17 -11 36 -20 41 -20 19 -2
100 -35 106 -44 3 -5 9 -8 13 -6 4 1 23 -4 42 -11 25 -10 34 -20 34 -36 0 -21
17 -47 85 -123 64 -72 176 -171 194 -171 5 0 -3 -28 -18 -63 -25 -56 -62 -189
-75 -272 -2 -16 -5 -31 -6 -32 -2 -2 -3 -11 -4 -20 -1 -10 -5 -36 -9 -58 -11
-66 -17 -120 -19 -159 -1 -20 -5 -39 -10 -42 -4 -3 -3 -14 2 -25 6 -11 7 -19
1 -19 -5 0 -8 -13 -7 -30 1 -16 0 -30 -3 -30 -3 0 -7 -19 -7 -43 -1 -23 -4
-67 -7 -97 -3 -30 -6 -59 -6 -63 -1 -5 -7 -5 -13 -1 -10 6 -10 4 -2 -7 11 -14
10 -58 -3 -89 -3 -8 -7 -33 -8 -55 -1 -22 -3 -40 -4 -40 -1 0 -4 -29 -6 -64
-3 -35 -10 -70 -16 -77 -9 -11 -8 -14 1 -14 8 0 9 -4 3 -12 -5 -7 -11 -31 -12
-52 -2 -22 -5 -49 -7 -60 -2 -12 -18 -100 -35 -196 -58 -333 -66 -371 -88
-392 -12 -10 -26 -16 -31 -13 -6 3 -10 0 -10 -7 0 -9 -3 -9 -10 2 -7 12 -13
13 -28 3 -15 -9 -22 -9 -31 0 -8 8 -11 7 -11 -3 0 -13 -2 -13 -10 0 -5 8 -10
10 -10 5 0 -6 -13 -12 -29 -13 -16 -1 -46 -9 -67 -18 -21 -9 -50 -18 -63 -21
-14 -2 -32 -10 -40 -16 -12 -9 -13 -9 -7 0 5 9 2 11 -8 7 -9 -3 -16 -10 -16
-15 0 -5 -3 -8 -7 -8 -22 4 -43 -2 -39 -10 4 -5 -2 -8 -11 -6 -10 1 -24 -2
-30 -8 -7 -5 -13 -6 -13 -3 0 4 -10 0 -22 -8 -12 -9 -33 -16 -45 -16 -14 0
-23 -6 -23 -15 0 -8 -6 -12 -14 -9 -8 3 -17 0 -21 -5 -3 -6 -11 -9 -16 -6 -5
4 -12 -1 -15 -10 -5 -12 -9 -13 -21 -4 -8 7 -13 8 -11 3 2 -5 -2 -11 -7 -13
-6 -2 -22 -12 -36 -22 -14 -10 -29 -16 -32 -12 -4 3 -9 -2 -13 -11 -3 -9 -15
-16 -25 -16 -10 0 -19 -5 -19 -12 0 -6 -3 -9 -6 -5 -3 3 -18 -5 -33 -19 -14
-13 -31 -22 -38 -20 -6 3 -14 -2 -17 -10 -3 -9 -11 -12 -17 -8 -8 5 -9 3 -5
-5 5 -8 0 -14 -13 -18 -12 -3 -21 -12 -21 -21 0 -8 -3 -12 -6 -9 -11 10 -45
-13 -38 -25 4 -7 3 -8 -5 -4 -6 4 -17 1 -24 -6 -19 -18 -27 -57 -15 -65 6 -3
8 -1 4 5 -3 6 -1 14 5 18 8 5 9 3 4 -6 -6 -10 -3 -12 11 -7 19 7 19 7 0 -8
-10 -8 -23 -12 -29 -8 -5 3 -26 7 -46 10 -27 3 -32 1 -21 -6 9 -7 10 -11 3
-11 -6 0 -15 5 -18 10 -5 8 -12 7 -23 -2 -9 -7 -13 -8 -10 -3 4 7 -17 12 -60
13 -40 2 -76 9 -90 18 -14 9 -21 11 -18 5 4 -6 2 -11 -3 -11 -6 0 -11 4 -11 9
0 5 -9 7 -20 4 -12 -3 -20 0 -20 6 0 7 -4 10 -9 6 -11 -6 -23 30 -50 155 -20
96 -25 129 -21 143 1 4 3 13 4 20 1 6 7 11 14 10 7 -2 9 4 5 14 -4 9 1 21 12
29 10 8 15 20 11 29 -3 9 -2 13 4 10 6 -3 10 5 10 19 0 14 5 26 11 26 5 0 7 5
4 10 -3 6 -1 10 5 10 6 0 8 5 5 10 -3 6 -1 10 4 10 6 0 10 6 8 13 -1 6 4 11
11 9 10 -2 10 2 1 19 -9 17 -8 20 2 14 9 -6 11 -3 6 9 -4 9 -3 15 2 12 4 -3
13 6 20 20 6 15 7 23 1 19 -5 -3 -10 -1 -10 4 0 6 5 11 11 11 6 0 8 7 5 16 -4
10 -2 13 6 8 8 -5 9 -2 5 9 -3 10 -3 17 2 17 8 0 10 9 14 54 1 13 5 22 8 20 4
-2 10 3 13 12 4 10 2 13 -7 8 -9 -6 -9 -5 0 8 7 8 10 18 6 21 -3 4 -1 7 5 7 6
0 9 6 6 14 -3 8 -1 17 4 20 6 3 8 16 4 28 -3 12 -1 19 4 15 5 -3 10 3 10 13 0
10 -4 17 -7 14 -4 -2 -11 1 -15 7 -4 8 -3 9 4 5 7 -4 12 -2 12 4 0 6 4 9 8 6
11 -6 9 25 -3 43 -5 10 -4 12 3 7 8 -5 12 3 12 24 0 17 4 29 8 26 5 -3 9 1 9
9 0 8 -5 11 -11 8 -6 -4 -5 1 2 10 8 9 11 20 9 25 -3 4 -2 14 3 22 6 9 3 18
-8 27 -16 12 -16 13 1 7 13 -5 16 -2 10 12 -5 13 -3 15 8 9 11 -7 12 -6 3 6
-12 16 -12 29 -1 47 5 7 4 12 -2 12 -6 0 -11 5 -11 11 0 6 7 8 17 5 14 -6 14
-3 -3 15 -10 12 -14 19 -8 16 7 -4 14 0 17 8 4 10 1 12 -10 8 -12 -5 -14 -3
-7 8 14 24 16 51 2 43 -9 -5 -9 -2 1 9 11 14 11 17 0 17 -11 0 -11 2 1 10 13
9 13 10 0 10 -12 0 -13 2 -1 9 11 7 11 9 0 13 -12 4 -12 7 0 21 12 15 10 18
-10 26 -16 7 -18 10 -7 10 19 1 13 41 -6 41 -6 0 -4 5 4 10 10 6 11 10 3 10
-7 0 -12 3 -12 8 4 21 -2 32 -13 26 -8 -5 -7 0 2 11 9 11 10 16 3 11 -9 -5
-13 1 -13 19 0 14 -4 24 -9 21 -5 -3 -12 1 -15 10 -4 10 -2 13 7 8 9 -6 9 -5
0 8 -7 8 -9 19 -5 23 4 5 1 5 -5 1 -12 -6 -18 5 -14 27 0 4 -4 7 -9 7 -5 0 -9
3 -9 8 4 22 -3 34 -16 29 -11 -5 -12 -1 -5 18 7 20 6 23 -6 18 -11 -4 -15 0
-12 13 2 12 -2 18 -10 16 -8 -1 -11 2 -7 9 4 6 -2 19 -14 30 -12 11 -19 25
-15 30 3 5 0 8 -8 7 -7 -2 -12 3 -11 10 2 6 -2 12 -9 12 -6 0 -9 3 -5 6 9 9
-16 32 -29 27 -7 -2 -10 6 -9 21 2 15 -1 24 -7 20 -11 -7 -39 27 -32 38 3 4
-2 5 -10 2 -12 -4 -16 0 -16 16 0 11 -4 18 -10 15 -5 -3 -10 2 -10 11 0 10 -3
15 -6 11 -8 -8 -33 16 -27 26 2 4 -2 7 -9 7 -7 0 -24 14 -37 30 -13 17 -30 30
-37 30 -8 0 -17 7 -20 15 -4 8 -10 12 -15 9 -5 -3 -9 2 -9 11 0 9 -4 13 -10
10 -5 -3 -10 -1 -10 4 0 6 -7 11 -16 11 -9 0 -12 5 -8 12 4 6 3 8 -4 4 -6 -3
-18 1 -26 10 -9 8 -16 12 -16 8 0 -4 -9 1 -20 11 -11 10 -20 15 -20 11 0 -4
-10 2 -22 13 -11 11 -25 18 -30 15 -4 -3 -8 0 -8 5 0 6 -7 11 -15 11 -8 0 -15
4 -15 10 0 5 -6 7 -13 4 -8 -3 -20 2 -27 11 -7 8 -23 15 -36 15 -13 0 -24 5
-24 10 0 6 -13 10 -29 10 -28 0 -30 3 -41 58 -7 31 -16 65 -22 76 -7 14 -7 16
4 10 10 -6 10 -5 2 7 -6 8 -15 28 -19 44 -7 28 -10 42 -19 100 -2 11 -4 20 -5
20 -5 0 -34 139 -35 167 0 9 -5 14 -10 11 -5 -4 -7 1 -3 10 3 10 2 17 -3 17
-5 0 -7 7 -4 15 4 8 1 15 -6 15 -10 0 -10 3 -1 14 8 10 9 15 1 18 -6 2 -12 24
-13 50 -1 25 -5 44 -9 42 -8 -5 -27 85 -31 144 0 6 -5 12 -10 12 -5 0 -3 8 4
17 8 9 9 14 3 10 -13 -8 -23 23 -31 93 -3 25 -10 52 -18 60 -7 8 -10 21 -8 28
3 7 2 20 -3 30 -4 9 -8 28 -9 40 -1 13 -8 28 -16 33 -10 6 -11 9 -1 9 8 0 9 5
3 18 -9 17 -29 90 -35 127 -2 11 -5 20 -6 20 -3 0 -7 23 -12 63 -1 12 -6 22
-10 22 -4 0 -8 15 -8 33 0 18 -6 39 -12 46 -10 11 -10 13 0 7 6 -4 12 -3 12 3
0 5 -5 11 -12 13 -6 2 -12 13 -13 24 -5 44 -18 100 -28 112 -6 8 -5 12 4 12
10 0 11 3 3 8 -7 4 -14 18 -15 32 -2 14 -8 28 -14 32 -6 5 -5 8 4 8 11 0 11 3
1 15 -6 8 -9 19 -5 25 3 5 0 10 -7 10 -11 0 -10 2 0 9 11 7 10 9 -3 15 -9 3
-14 10 -10 15 3 5 1 12 -5 16 -5 3 -10 12 -10 18 0 7 4 6 11 -3 9 -12 9 -11 4
5 -16 45 -17 56 -4 73 13 15 12 16 -3 3 -16 -12 -18 -11 -19 5 -1 22 -5 47
-14 87 -4 21 -2 27 7 22 7 -4 6 -1 -2 7 -9 7 -14 21 -12 31 2 9 -1 17 -7 17
-5 0 -8 10 -6 22 3 12 -1 28 -8 37 -10 12 -9 13 2 6 11 -6 13 -4 7 11 -4 10
-9 26 -11 34 -2 8 -7 24 -11 34 -5 14 -4 17 5 12 9 -6 10 -4 2 10 -16 30 -30
105 -19 98 6 -4 5 4 -2 16 -6 12 -9 24 -6 27 3 3 1 14 -5 24 -7 14 -6 19 3 19
8 0 7 4 -4 10 -10 6 -15 20 -13 35 1 14 -1 25 -5 25 -5 0 -7 11 -6 25 2 14 -1
22 -7 18 -6 -4 -8 2 -5 15 4 12 2 22 -3 22 -4 0 -5 7 -2 17 4 11 3 14 -5 9
-11 -7 -16 12 -15 52 1 6 -3 12 -9 12 -5 0 -6 5 -2 11 3 6 0 15 -7 20 -12 7
-12 9 0 9 11 0 11 3 1 15 -7 8 -10 15 -6 15 4 0 0 13 -8 28 -8 16 -13 40 -12
55 2 15 -1 27 -5 27 -5 0 -9 11 -9 25 0 14 -3 25 -7 25 -5 0 -9 15 -10 34 -2
19 -8 47 -14 63 -7 15 -11 40 -10 56 2 15 -3 27 -9 27 -7 0 -10 8 -7 20 3 11
1 22 -3 25 -5 3 -7 16 -5 30 1 14 -2 25 -6 25 -5 0 -8 3 -8 8 4 25 -2 42 -13
36 -10 -6 -10 -4 0 8 10 13 10 17 0 21 -10 4 -10 7 1 15 10 7 10 11 1 14 -7 2
-13 17 -15 34 -1 17 -7 39 -12 50 -6 10 -9 27 -8 37 2 9 0 17 -4 17 -4 0 -8 6
-8 13 -1 6 -4 30 -9 52 -4 22 -8 51 -8 65 -1 14 -5 28 -11 32 -5 4 -11 15 -12
25 -3 27 -11 75 -18 103 -4 14 -7 33 -7 43 1 9 -5 17 -11 17 -7 0 -6 4 3 10
11 7 11 10 2 10 -7 0 -11 4 -7 9 3 5 1 12 -4 16 -5 3 -8 14 -6 25 2 11 0 20
-5 20 -6 0 -10 10 -10 23 0 49 -5 85 -11 81 -4 -2 -7 6 -7 19 -1 22 -9 62 -12
62 -1 0 -4 16 -7 35 -2 19 -9 42 -14 51 -5 10 -9 29 -9 44 0 18 -4 24 -12 19
-10 -6 -10 -4 0 8 9 11 10 18 2 23 -6 3 -8 11 -4 16 3 5 0 17 -7 25 -15 19
-19 64 -4 64 5 0 4 4 -3 9 -8 5 -15 20 -15 35 -1 14 -6 26 -10 26 -5 0 -7 8
-6 18 1 9 0 19 -1 22 -1 3 -3 14 -5 25 -9 52 -17 81 -28 94 -10 12 -9 13 2 6
11 -6 13 -4 6 11 -4 10 -10 29 -12 41 -3 14 -10 20 -17 16 -7 -4 -6 -1 1 9 7
8 10 18 7 21 -4 3 -10 23 -14 44 -5 21 -11 49 -15 63 -4 14 -7 31 -7 38 -1 6
-6 12 -11 12 -5 0 -5 6 2 13 8 10 7 17 -1 25 -7 7 -9 12 -5 12 4 0 1 13 -7 29
-9 16 -12 31 -9 34 3 4 1 13 -5 20 -7 8 -9 17 -5 21 4 4 1 11 -7 16 -12 8 -12
10 -1 10 11 0 11 3 1 15 -7 8 -9 15 -6 15 4 0 1 10 -6 23 -6 12 -13 41 -14 65
-1 24 -7 49 -14 56 -6 8 -10 18 -9 22 1 5 0 11 -1 14 -3 9 -18 74 -24 105 -1
6 -5 15 -9 21 -4 7 -8 28 -9 48 -2 20 -6 36 -10 36 -5 0 -8 9 -8 20 0 11 -5
20 -11 20 -5 0 -8 4 -5 9 7 10 -27 51 -43 51 -6 0 -11 5 -11 11 0 5 -5 7 -11
4 -6 -4 -16 1 -23 11 -9 12 -15 14 -20 5 -5 -8 -11 -7 -22 4 -19 18 -38 20
-28 3 6 -10 4 -10 -8 0 -13 10 -17 10 -21 0 -4 -10 -8 -10 -16 2 -10 13 -11
13 -11 0 0 -13 -1 -13 -10 0 -6 9 -10 10 -10 3 0 -8 -9 -9 -27 -4 -31 9 -54 4
-65 -13 -5 -7 -8 -6 -8 3 0 11 -4 10 -16 -5 -8 -10 -13 -13 -9 -6 4 7 0 12
-10 12 -10 0 -13 -5 -9 -12 5 -8 2 -9 -9 -5 -10 4 -27 -3 -43 -18 -15 -14 -31
-22 -36 -19 -4 3 -8 2 -7 -3 3 -20 -2 -34 -11 -28 -5 3 -10 -3 -10 -14 0 -11
-7 -26 -15 -35 -8 -8 -16 -23 -18 -33 -1 -10 -6 -24 -10 -30 -5 -7 -5 -13 0
-13 4 0 1 -5 -7 -10 -13 -9 -13 -10 0 -10 13 0 13 -2 1 -9 -8 -5 -16 -22 -18
-38 -5 -54 -10 -65 -29 -76 -12 -7 -104 -10 -264 -8 -623 6 -1056 -109 -1486
-395 -105 -69 -310 -224 -392 -297 -81 -72 -248 -222 -263 -236 -8 -9 -58 -55
-110 -103 -52 -47 -114 -105 -139 -128 -25 -24 -70 -66 -100 -94 -216 -202
-458 -398 -690 -558 -364 -250 -860 -503 -1250 -638 -52 -18 -103 -37 -112
-42 -21 -10 -24 -48 -4 -48 9 0 12 -7 9 -19 -3 -12 11 -47 35 -88 85 -144 130
-297 243 -823 77 -359 100 -448 196 -755 137 -440 204 -602 322 -777 113 -166
355 -448 427 -495 13 -8 24 -23 24 -33 0 -22 12 -26 104 -39 38 -6 72 -14 76
-18 4 -4 26 -51 48 -103 22 -52 59 -135 82 -185 23 -49 50 -109 61 -132 21
-46 36 -60 49 -47 5 5 -22 77 -62 164 -100 221 -137 310 -128 310 13 0 27 -22
53 -85 58 -137 128 -275 146 -285 29 -15 51 -2 51 30 0 15 -16 60 -35 99 -40
80 -40 81 -21 81 7 0 19 7 26 15 10 12 9 25 -8 70 l-21 55 39 0 c22 0 49 -6
60 -12 15 -10 23 -10 28 -2 4 6 21 14 37 18 30 6 32 4 60 -54 25 -52 32 -60
57 -60 38 0 46 35 19 87 l-20 40 25 -5 c14 -2 32 2 42 10 9 9 26 17 38 20 18
5 24 -4 49 -81 32 -99 51 -141 65 -141 18 0 11 37 -25 137 -19 54 -35 99 -35
100 0 1 17 7 38 14 124 40 378 182 653 365 202 135 304 210 548 402 19 15 82
66 140 114 58 48 108 88 111 88 3 0 11 -13 17 -30 6 -16 7 -30 2 -30 -16 0
-10 -44 22 -147 26 -82 36 -103 51 -103 23 0 23 -1 -12 104 -35 104 -35 102
-14 82 21 -21 40 -20 57 4 8 11 16 17 20 14 3 -3 15 -3 26 1 31 10 26 47 -16
127 l-37 70 35 29 34 28 12 -27 c101 -227 158 -341 170 -344 9 -2 32 -44 53
-95 42 -105 62 -133 90 -126 37 10 33 41 -24 177 -31 74 -56 141 -56 149 0 13
56 45 64 36 2 -2 16 -38 31 -79 31 -83 50 -110 64 -95 6 6 -11 62 -45 150 -62
160 -120 330 -130 379 -6 33 -5 34 83 88 450 279 865 391 1389 375 119 -4 195
-2 201 4 6 6 10 4 11 -6 1 -8 3 -22 4 -30 1 -8 6 -15 12 -15 6 0 4 -5 -4 -10
-11 -7 -11 -10 -2 -10 7 0 10 -5 7 -10 -3 -5 0 -10 7 -10 9 0 9 -3 -2 -10 -8
-5 -10 -10 -4 -10 6 0 11 -6 11 -12 1 -26 13 -86 22 -111 5 -14 7 -28 4 -31
-4 -3 -2 -6 4 -6 10 0 12 -8 15 -65 1 -19 4 -35 8 -35 3 0 7 -8 8 -17 2 -22
10 -58 12 -58 1 0 4 -13 6 -30 3 -16 9 -42 14 -57 6 -19 5 -28 -3 -32 -9 -3
-9 -5 1 -5 6 -1 12 -11 12 -24 0 -13 3 -27 7 -31 4 -4 9 -19 11 -34 2 -15 9
-30 15 -34 9 -6 9 -8 -1 -8 -8 0 -10 -5 -6 -12 4 -7 9 -24 11 -38 5 -43 8 -55
16 -67 5 -7 5 -17 2 -23 -3 -5 -2 -10 4 -10 5 0 9 -8 9 -17 0 -10 3 -31 7 -48
4 -16 7 -40 8 -52 1 -13 4 -23 8 -23 5 0 6 -9 4 -20 -2 -11 2 -25 8 -32 7 -7
13 -24 14 -38 2 -28 11 -85 13 -85 1 0 3 -7 5 -15 20 -102 29 -137 36 -145 4
-6 8 -20 8 -30 0 -11 2 -29 4 -40 15 -80 21 -102 30 -112 6 -9 6 -18 -3 -28
-6 -8 -9 -20 -5 -27 4 -7 -2 -3 -12 8 -11 12 -37 24 -59 28 -60 9 -97 17 -106
22 -4 3 -8 0 -8 -6 0 -6 -4 -9 -9 -5 -5 3 -12 1 -15 -4 -5 -8 -49 -7 -121 3
-16 2 -36 -1 -42 -6 -9 -7 -13 -7 -13 -1 0 6 -25 9 -62 6 -35 -3 -77 -5 -95
-5 -18 -1 -30 -4 -28 -7 2 -4 -9 -6 -23 -5 -15 1 -31 -1 -37 -5 -9 -5 -20 -8
-55 -15 -49 -10 -80 -19 -80 -25 0 -6 -19 -10 -63 -11 -9 -1 -15 -5 -12 -10 5
-7 -41 -25 -57 -22 -5 1 -8 -3 -8 -8 0 -6 -6 -10 -14 -10 -7 0 -25 -9 -39 -20
-14 -11 -32 -20 -40 -20 -8 0 -18 -7 -21 -16 -4 -9 -9 -14 -12 -11 -4 3 -18
-5 -32 -18 -14 -13 -30 -21 -35 -18 -6 3 -7 1 -3 -5 4 -7 4 -12 -1 -12 -4 0
-27 -18 -51 -40 -23 -22 -46 -40 -52 -40 -5 0 -6 -7 -3 -17 4 -11 3 -14 -5 -9
-7 4 -19 -5 -30 -23 -10 -17 -21 -29 -24 -26 -3 3 -13 -7 -23 -22 -10 -15 -24
-32 -32 -36 -7 -4 -13 -12 -13 -17 0 -6 -8 -18 -17 -28 -36 -37 -63 -72 -63
-81 0 -5 -7 -12 -16 -15 -8 -3 -12 -10 -9 -16 3 -6 0 -13 -9 -16 -8 -3 -22
-21 -31 -40 -9 -19 -21 -34 -27 -34 -6 0 -8 -3 -5 -7 4 -3 -3 -17 -15 -30 -12
-13 -18 -23 -13 -23 4 0 1 -8 -7 -17 -25 -31 -58 -94 -53 -103 3 -4 -2 -10
-10 -14 -8 -3 -15 -14 -15 -24 0 -11 -7 -25 -15 -32 -9 -7 -13 -15 -11 -18 3
-2 -1 -17 -9 -31 -20 -39 -50 -160 -61 -246 -17 -136 -25 -350 -13 -382 5 -13
4 -25 -1 -28 -5 -3 -7 -12 -4 -19 3 -7 7 -47 9 -87 2 -41 4 -74 5 -74 1 0 3
-20 5 -45 1 -25 4 -45 5 -45 1 0 4 -13 5 -30 2 -16 6 -41 10 -55 3 -14 8 -42
10 -63 2 -21 7 -42 10 -48 7 -10 17 -55 18 -76 0 -7 3 -13 6 -13 4 0 8 -12 9
-26 1 -14 5 -31 9 -37 4 -7 8 -15 9 -19 1 -5 3 -10 4 -13 1 -3 3 -8 5 -12 5
-18 17 -49 26 -65 5 -10 9 -24 9 -31 0 -7 13 -38 30 -70 16 -31 27 -57 23 -57
-3 0 0 -6 6 -13 6 -8 7 -18 3 -22 -4 -5 -1 -5 6 -1 6 4 13 2 13 -3 1 -6 2 -15
3 -21 0 -5 8 -18 16 -28 8 -10 16 -25 18 -33 2 -8 8 -16 13 -17 5 -2 6 -8 3
-14 -3 -5 3 -16 15 -24 12 -8 21 -21 21 -28 0 -7 9 -23 20 -36 11 -13 20 -27
20 -31 0 -4 6 -14 14 -21 7 -8 35 -41 61 -73 27 -33 52 -62 55 -65 17 -12 94
-76 105 -87 8 -7 18 -13 24 -13 6 0 11 -5 11 -11 0 -5 5 -7 10 -4 6 3 10 2 10
-3 0 -17 154 -82 203 -85 9 -1 17 -4 17 -7 0 -4 6 -7 13 -8 6 0 23 -3 37 -6
63 -15 128 -25 187 -29 18 -1 33 -6 33 -11 0 -5 7 -3 15 4 8 7 15 8 15 3 0 -6
15 -9 34 -6 34 3 36 1 132 -134 147 -210 173 -243 189 -243 31 0 12 37 -98
194 -136 193 -132 186 -115 186 7 0 38 -38 67 -85 43 -66 60 -85 78 -85 13 0
23 -3 23 -8 0 -16 66 -82 82 -82 24 0 15 33 -21 78 -17 20 -31 40 -31 45 0 4
-18 39 -39 77 -22 39 -38 70 -36 70 3 0 37 -43 76 -96 58 -79 73 -93 85 -83 8
6 14 15 14 18 0 4 -28 45 -61 92 -34 46 -59 81 -55 78 4 -4 35 0 69 7 93 20
93 20 139 -51 24 -35 49 -65 56 -65 26 0 22 30 -12 83 -20 31 -36 58 -36 59 0
2 12 5 26 6 15 1 33 7 40 12 8 8 14 8 19 -1 4 -6 10 -7 14 -2 9 12 59 33 81
33 10 0 26 7 34 16 15 14 17 13 27 -15 6 -17 18 -31 27 -31 11 0 13 -3 5 -11
-11 -11 4 -59 20 -59 4 0 7 -6 7 -14 0 -8 7 -17 16 -20 9 -4 14 -9 11 -13 -4
-3 7 -19 23 -35 16 -15 27 -28 23 -28 -5 0 5 -11 20 -25 15 -14 27 -30 27 -35
0 -5 9 -11 20 -15 11 -3 19 -12 17 -18 -1 -7 4 -11 10 -10 7 2 12 -1 10 -6 -2
-10 72 -81 86 -81 4 0 6 -3 4 -7 -3 -5 1 -14 9 -21 8 -7 14 -10 14 -6 0 4 10
-5 23 -19 12 -15 28 -27 35 -27 7 0 12 -8 12 -17 0 -9 3 -14 6 -10 7 6 15 0
69 -50 20 -18 40 -33 45 -33 6 0 10 -8 10 -17 0 -15 2 -16 10 -3 7 10 10 11
10 2 0 -7 11 -17 25 -24 13 -6 22 -15 19 -19 -3 -5 2 -9 11 -9 9 0 13 -4 10
-10 -3 -6 1 -7 9 -4 9 3 16 1 16 -4 0 -6 9 -14 20 -17 11 -4 17 -11 14 -17 -4
-6 -2 -8 4 -4 13 8 84 -39 74 -49 -4 -5 -1 -5 6 -1 8 5 23 -3 41 -21 37 -39
86 -73 112 -78 73 -14 169 -62 162 -81 -3 -8 -11 -14 -18 -14 -8 0 -16 -8 -19
-18 -11 -34 -9 -208 2 -229 6 -11 8 -23 5 -27 -3 -3 -1 -6 5 -6 7 0 12 -6 12
-14 0 -32 83 -85 250 -159 54 -24 140 -47 195 -53 49 -5 76 2 145 41 17 10 26
11 29 4 2 -6 0 -14 -5 -18 -5 -3 -28 -42 -50 -86 -68 -132 -78 -148 -102 -171
-13 -13 -21 -28 -17 -33 3 -6 2 -11 -2 -11 -5 0 -9 -10 -10 -22 -1 -11 -8 -25
-15 -29 -7 -5 -10 -9 -6 -9 4 0 -4 -21 -18 -47 -61 -112 -88 -158 -94 -163 -3
-3 -5 -12 -5 -20 0 -8 -5 -21 -12 -28 -7 -7 -13 -20 -13 -28 0 -8 -3 -14 -8
-14 -4 0 -18 -22 -31 -50 -13 -27 -28 -50 -32 -50 -5 0 -9 -11 -9 -25 0 -13
-8 -29 -17 -34 -10 -6 -15 -11 -11 -11 7 0 -2 -25 -39 -116 -5 -13 38 -33 84
-38 18 -3 37 -7 43 -11 5 -3 10 -1 10 5 0 6 5 8 11 4 7 -4 39 -8 73 -10 99 -5
174 -14 201 -24 14 -5 25 -7 25 -4 0 2 8 0 19 -5 21 -12 36 -52 16 -45 -6 3
-18 -2 -25 -10 -7 -9 -17 -13 -24 -9 -6 4 -5 -1 3 -11 8 -9 10 -16 5 -15 -16
4 -44 -13 -38 -22 3 -5 -2 -9 -10 -9 -8 0 -21 -10 -27 -22 -19 -35 -38 -50
-51 -42 -9 5 -8 2 1 -10 12 -15 12 -17 0 -14 -8 2 -13 -3 -11 -10 1 -8 -2 -11
-8 -7 -7 4 -14 -2 -17 -14 -3 -13 -13 -21 -27 -21 -17 0 -18 -2 -6 -10 8 -5
12 -10 8 -11 -5 -1 -12 -3 -18 -4 -5 -1 -13 -3 -17 -4 -5 -1 -1 -6 7 -11 13
-8 12 -10 -2 -10 -10 0 -18 -5 -18 -11 0 -5 -4 -8 -9 -5 -4 3 -13 -6 -19 -19
-7 -14 -16 -25 -22 -25 -5 0 -9 -3 -7 -7 1 -5 -2 -9 -6 -10 -13 -4 -37 -31
-37 -43 0 -6 -5 -8 -12 -4 -8 5 -9 2 -5 -10 4 -9 3 -15 -1 -12 -9 6 -39 -16
-39 -29 0 -5 -10 -15 -22 -21 -12 -6 -22 -14 -22 -18 1 -16 -13 -36 -25 -36
-8 0 -14 -7 -14 -16 0 -9 -9 -18 -19 -21 -13 -3 -18 -10 -13 -21 5 -15 4 -16
-13 -2 -11 9 -16 10 -11 3 4 -8 2 -13 -4 -13 -6 0 -8 -6 -5 -12 4 -7 -7 2 -24
21 -17 18 -31 37 -31 40 0 4 -16 24 -35 44 -19 20 -35 42 -35 47 0 6 -10 15
-22 20 -13 5 -17 9 -9 9 10 1 7 7 -7 20 -12 10 -22 21 -22 25 0 3 -8 15 -17
25 -33 36 -43 50 -43 60 0 5 -9 13 -20 16 -11 3 -20 12 -20 18 0 7 -14 28 -30
47 -16 19 -30 38 -30 43 0 4 -8 16 -17 26 -10 11 -27 32 -38 46 -11 15 -25 32
-32 40 -7 7 -9 15 -6 19 4 3 1 6 -6 6 -7 0 -10 4 -7 8 3 5 -4 15 -15 22 -10 8
-19 20 -19 26 0 7 -4 14 -9 16 -5 2 -11 10 -13 18 -2 8 -11 21 -20 28 -10 7
-18 17 -18 22 0 5 -19 28 -42 52 -23 24 -42 45 -43 48 0 3 -3 4 -7 3 -5 -2 -8
3 -8 10 -1 6 -13 21 -27 32 -14 11 -39 32 -55 48 -32 29 -43 34 -33 15 4 -7
-2 -4 -12 7 -20 22 -35 28 -70 28 -13 1 -23 6 -23 12 0 5 -5 3 -10 -5 -5 -8
-10 -10 -10 -4 0 8 -24 10 -72 9 -40 -2 -73 -4 -73 -5 0 -2 -23 -7 -60 -15
-73 -15 -162 -39 -172 -47 -7 -5 -17 -7 -23 -3 -5 3 -10 2 -10 -4 0 -6 -7 -8
-15 -5 -8 4 -15 2 -15 -3 0 -5 -21 -15 -47 -22 -27 -8 -54 -19 -62 -25 -8 -6
-16 -10 -18 -8 -2 1 -20 -5 -41 -14 -20 -9 -46 -20 -57 -24 -11 -4 -56 -25
-100 -46 -44 -21 -83 -37 -87 -36 -5 1 -8 -3 -8 -9 0 -5 -4 -7 -10 -4 -5 3
-10 1 -10 -6 0 -7 -3 -9 -6 -6 -4 4 -20 -3 -35 -14 -16 -11 -29 -17 -29 -13 0
4 -9 -1 -20 -11 -11 -10 -20 -14 -20 -9 0 5 -4 5 -8 -1 -4 -5 -25 -19 -47 -30
-22 -10 -52 -28 -67 -38 -16 -10 -28 -16 -28 -13 0 3 -16 -6 -36 -19 -20 -14
-40 -22 -45 -19 -5 3 -9 1 -9 -4 0 -8 -36 -28 -53 -30 -5 0 -17 -10 -26 -21
-10 -11 -21 -18 -24 -15 -3 4 -13 -1 -22 -10 -9 -9 -22 -16 -30 -16 -7 0 -15
-3 -17 -7 -1 -5 -29 -21 -60 -38 -32 -16 -58 -33 -58 -37 0 -5 -5 -8 -11 -8
-6 0 -45 -21 -87 -47 -109 -68 -115 -72 -134 -79 -10 -3 -18 -10 -18 -14 0 -4
-13 -13 -30 -20 -16 -7 -39 -21 -51 -31 -12 -10 -27 -16 -33 -12 -6 3 -8 3 -4
-2 7 -8 -124 -95 -143 -95 -5 0 -9 -4 -9 -8 0 -4 -26 -23 -57 -42 -32 -19 -63
-39 -69 -45 -6 -5 -27 -19 -47 -30 -20 -11 -37 -23 -37 -27 0 -5 -7 -8 -15 -8
-8 0 -15 -4 -15 -10 0 -5 -7 -10 -15 -10 -7 0 -18 -8 -24 -17 -5 -10 -12 -17
-15 -16 -12 3 -45 -10 -41 -17 2 -4 -8 -13 -23 -21 -40 -20 -116 -72 -120 -81
-2 -4 -10 -8 -18 -8 -8 0 -17 -7 -20 -15 -4 -8 -9 -13 -13 -11 -4 3 -20 -6
-35 -19 -16 -14 -37 -27 -47 -30 -11 -4 -19 -11 -19 -16 0 -5 -6 -9 -14 -9 -7
0 -19 -7 -26 -15 -7 -8 -16 -13 -20 -10 -4 3 -10 -2 -13 -10 -3 -7 -21 -22
-39 -31 -18 -9 -35 -20 -38 -24 -8 -11 -54 -34 -63 -32 -5 1 -6 -1 -3 -6 4 -8
-46 -44 -59 -42 -3 0 -16 -11 -29 -25 -13 -14 -28 -25 -33 -25 -5 0 -18 -8
-29 -17 -28 -25 -82 -63 -89 -63 -4 0 -13 -6 -20 -13 -30 -26 -44 -37 -50 -37
-2 0 -16 -10 -31 -23 -14 -12 -26 -20 -28 -17 -1 3 -9 -2 -18 -10 -9 -8 -13
-19 -10 -24 3 -5 0 -6 -7 -2 -7 5 -22 -3 -37 -19 -13 -14 -24 -23 -24 -20 0 3
-6 1 -12 -5 -7 -6 -34 -26 -60 -44 -26 -18 -45 -36 -41 -40 3 -3 -4 -6 -16 -6
-12 0 -24 -7 -27 -15 -4 -8 -12 -15 -20 -15 -8 0 -14 -7 -14 -16 0 -8 -4 -13
-9 -9 -6 3 -19 -5 -30 -17 -12 -12 -21 -18 -21 -13 0 4 -9 -2 -20 -15 -11 -13
-20 -20 -20 -17 0 4 -8 -1 -18 -10 -10 -10 -31 -27 -46 -38 -16 -11 -37 -28
-48 -38 -10 -9 -21 -17 -26 -17 -4 0 -22 -14 -40 -31 -17 -16 -32 -27 -32 -23
0 4 -11 -5 -25 -20 -14 -15 -25 -24 -25 -20 0 4 -11 -5 -25 -20 -13 -14 -28
-26 -33 -26 -4 0 -24 -15 -44 -32 -19 -18 -38 -33 -41 -33 -3 0 -19 -12 -36
-27 -17 -16 -35 -28 -41 -28 -5 0 -10 -7 -10 -16 0 -8 -4 -12 -10 -9 -5 3 -10
1 -10 -5 0 -6 -4 -9 -8 -6 -5 3 -15 -4 -22 -15 -8 -10 -19 -19 -25 -19 -6 0
-17 -9 -25 -20 -8 -11 -20 -20 -27 -20 -7 0 -17 -9 -23 -20 -6 -11 -16 -20
-22 -20 -6 0 -18 -7 -27 -15 -35 -32 -91 -77 -91 -72 0 2 -19 -13 -42 -34 -24
-22 -49 -39 -56 -39 -7 0 -10 -4 -7 -10 3 -5 0 -10 -8 -10 -8 0 -17 -7 -21
-15 -3 -8 -13 -15 -21 -15 -9 0 -13 -4 -10 -10 3 -5 -1 -10 -9 -10 -9 0 -16
-4 -16 -10 0 -5 -5 -10 -10 -10 -9 0 -51 -34 -102 -82 -10 -10 -18 -16 -18
-13 0 3 -12 -6 -27 -20 -15 -14 -31 -25 -36 -25 -4 0 -5 -4 -2 -10 3 -5 -3
-10 -14 -10 -12 0 -21 -7 -21 -15 0 -8 -5 -15 -11 -15 -7 0 -18 -8 -26 -17 -9
-11 -11 -12 -7 -3 4 8 -11 -4 -33 -27 -22 -23 -43 -40 -47 -36 -3 3 -6 1 -6
-6 0 -7 -5 -9 -10 -6 -6 4 -9 2 -8 -3 2 -5 -10 -22 -27 -38 -16 -15 -30 -26
-31 -23 0 2 -14 -8 -32 -22 -17 -15 -28 -30 -25 -33 4 -3 1 -6 -6 -6 -7 0 -19
-7 -28 -15 -8 -8 -20 -12 -26 -8 -7 3 -9 3 -5 -2 7 -8 -49 -65 -64 -65 -5 0
-8 -6 -8 -14 0 -8 -5 -18 -12 -22 -7 -5 -8 -3 -3 5 5 9 1 9 -14 -1 -12 -7 -21
-18 -21 -25 0 -7 -6 -13 -14 -13 -8 0 -16 -7 -20 -15 -3 -8 -13 -15 -23 -15
-14 0 -15 -2 -5 -9 10 -6 7 -10 -12 -15 -15 -4 -24 -11 -21 -16 3 -6 -1 -10
-9 -10 -9 0 -21 -9 -28 -20 -7 -11 -18 -20 -24 -20 -6 0 -17 -11 -24 -25 -7
-13 -21 -27 -31 -30 -10 -3 -21 -15 -24 -25 -3 -11 -9 -19 -13 -19 -20 3 -32
-2 -27 -11 3 -5 2 -10 -3 -10 -6 0 -35 -24 -66 -54 -31 -30 -56 -53 -56 -50 0
3 -19 -14 -42 -38 -23 -24 -45 -42 -48 -41 -3 0 -11 -5 -18 -13 -7 -8 -10 -14
-6 -14 11 0 -59 -49 -79 -56 -10 -4 -16 -12 -13 -20 3 -7 -7 -17 -25 -23 -16
-5 -29 -7 -29 -4 0 3 -7 0 -15 -7 -8 -6 -19 -9 -25 -5 -5 3 -10 1 -10 -5 0 -7
-7 -10 -15 -6 -8 3 -15 2 -15 -3 0 -4 -7 -8 -15 -9 -8 -1 -22 -3 -30 -4 -8 -1
-15 -5 -15 -9 0 -5 -7 -6 -15 -3 -8 4 -15 2 -15 -4 0 -6 -9 -8 -20 -5 -11 3
-20 1 -20 -4 0 -5 -6 -10 -12 -10 -17 -1 -100 -19 -105 -23 -2 -2 -6 -3 -10
-4 -5 -1 -14 -5 -20 -9 -8 -5 -13 -3 -13 5 0 9 -3 9 -10 -2 -5 -8 -10 -11 -10
-6 0 4 -11 1 -24 -7 -13 -9 -32 -14 -42 -13 -10 2 -27 -1 -37 -6 -17 -9 -62
-18 -99 -21 -10 -1 -18 -4 -18 -8 0 -4 -11 -6 -25 -4 -14 1 -28 -1 -30 -6 -3
-4 -14 -6 -25 -4 -11 2 -20 -1 -20 -6 0 -5 -6 -9 -12 -7 -14 2 -97 -14 -113
-22 -3 -1 -14 -3 -24 -4 -11 0 -23 -4 -27 -8 -4 -5 -18 -8 -30 -8 -13 0 -26
-5 -29 -10 -4 -6 -11 -8 -16 -5 -5 4 -9 2 -9 -4 0 -6 -7 -8 -15 -5 -8 4 -15 1
-15 -5 0 -6 -7 -8 -15 -5 -8 4 -15 1 -15 -7 0 -7 -3 -9 -7 -6 -3 4 -12 2 -20
-4 -7 -6 -13 -8 -13 -4 0 4 -7 1 -16 -6 -9 -7 -23 -14 -31 -15 -8 -2 -23 -10
-34 -20 -10 -9 -19 -13 -19 -9 0 4 -9 0 -20 -10 -11 -10 -20 -14 -20 -9 0 5
-5 1 -11 -8 -5 -10 -15 -18 -21 -18 -9 0 -52 -47 -54 -60 0 -3 -4 -13 -8 -22
-4 -9 -9 -25 -11 -35 -2 -10 -4 -18 -5 -18 -2 0 -5 -16 -14 -60 -3 -16 -8 -41
-11 -55 -13 -59 -12 -97 2 -128 8 -17 20 -32 25 -32 5 0 6 -4 3 -10 -3 -5 -2
-10 2 -10 5 0 17 -17 28 -37 11 -21 22 -40 25 -43 3 -3 26 -34 52 -70 41 -58
68 -86 168 -173 14 -13 47 -38 73 -57 26 -18 47 -37 47 -42 0 -24 93 -534 99
-540 3 -4 12 -4 18 0 9 6 8 31 -6 108 -15 84 -16 102 -4 112 22 21 31 6 43
-71 16 -97 19 -107 37 -107 18 0 19 -20 -22 254 -17 113 -22 173 -16 179 7 7
12 5 17 -6 3 -9 10 -15 14 -12 13 8 50 -31 50 -53 0 -39 70 -467 80 -490 15
-34 33 -16 27 27 -8 52 -66 421 -72 453 -4 23 -1 27 15 25 11 -2 23 -7 27 -12
5 -4 2 -5 -6 0 -9 5 -12 4 -7 -3 4 -6 13 -9 20 -6 18 7 23 -12 32 -106 7 -75
18 -105 36 -94 9 6 3 115 -8 156 -4 13 1 16 22 13 14 -1 29 -7 33 -12 8 -13
44 -26 36 -13 -3 6 1 7 9 4 9 -3 13 -10 10 -15 -3 -5 -2 -9 3 -8 24 4 53 -2
48 -11 -9 -14 8 -12 24 3 11 10 13 10 7 0 -5 -8 -1 -13 9 -13 10 0 13 -5 9
-12 -6 -10 -5 -10 8 0 12 10 17 10 27 -1 6 -8 7 -18 3 -23 -4 -4 1 -2 11 5 13
10 17 11 17 1 0 -7 8 -10 20 -7 11 3 18 1 15 -3 -3 -5 -1 -11 5 -15 5 -3 10 0
10 7 0 8 4 7 11 -4 5 -10 16 -15 24 -12 8 4 15 1 15 -6 0 -7 8 -10 20 -7 11 3
20 1 20 -5 0 -5 9 -6 20 -3 11 4 20 2 20 -4 0 -6 13 -11 29 -11 17 0 32 -4 35
-9 4 -5 17 -8 31 -7 14 2 26 -3 30 -12 4 -12 8 -12 22 -1 14 12 16 12 8 0 -6
-11 -3 -13 13 -9 12 4 20 3 17 -2 -3 -4 2 -11 11 -14 8 -3 12 -2 9 4 -3 6 -1
10 4 10 6 0 11 -4 11 -10 0 -5 9 -10 20 -10 15 0 20 -7 20 -27 0 -41 10 -165
15 -189 3 -12 12 -25 21 -28 14 -5 15 6 10 111 -7 134 -3 137 14 11 8 -60 16
-88 25 -88 20 0 22 17 10 102 -12 82 -11 95 5 53 12 -30 26 -32 35 -4 5 15 10
17 20 9 10 -8 14 -7 18 2 3 7 8 -2 12 -19 8 -37 45 -48 45 -14 0 11 5 23 12
27 7 4 8 3 4 -4 -9 -15 9 -15 34 -2 12 6 21 6 25 1 6 -10 20 -111 31 -218 6
-52 10 -63 25 -63 22 0 22 -7 5 163 -12 127 -8 157 19 157 11 0 15 -12 15 -39
0 -43 8 -54 29 -41 10 6 12 20 7 48 -5 37 -4 40 19 46 14 4 26 5 28 4 1 -2 9
3 17 10 33 28 139 90 144 85 3 -4 6 -1 6 6 0 16 25 41 40 41 6 0 8 5 5 10 -3
6 -2 10 4 10 5 0 13 9 16 20 3 11 10 20 15 20 5 0 30 20 54 45 25 25 43 45 40
45 -2 0 1 6 8 14 7 8 16 12 20 9 5 -2 8 0 8 5 0 5 87 97 194 205 107 108 191
198 188 201 -3 3 1 6 8 6 7 0 23 11 36 25 13 14 21 25 19 25 -2 0 15 18 37 40
23 22 46 40 51 40 6 0 8 3 5 6 -3 3 15 27 40 54 56 57 106 112 187 204 33 38
75 82 92 99 18 17 33 33 33 37 0 4 19 28 43 53 73 80 97 109 97 120 0 6 3 8 6
4 8 -7 100 104 96 116 -1 5 1 6 5 4 5 -3 14 1 21 9 7 8 11 14 8 14 -2 0 16 20
41 45 24 25 40 45 36 45 -4 0 -1 6 8 13 14 11 71 76 187 216 20 25 47 56 60
68 12 13 22 26 22 29 0 2 15 20 33 38 41 43 77 86 77 92 0 3 10 15 23 28 12
13 40 45 62 71 22 26 47 55 55 64 8 9 38 43 65 76 88 104 99 118 132 152 17
18 30 33 27 33 -2 0 11 15 29 34 17 18 41 45 52 59 22 28 98 113 163 185 24
26 60 66 79 89 20 23 40 40 45 37 4 -3 7 -1 6 5 -3 9 88 113 197 225 27 28 49
54 47 59 -1 4 5 7 13 7 14 0 20 12 16 33 -1 5 2 6 7 3 4 -3 67 55 140 128 72
74 132 132 134 131 2 -2 14 12 28 31 14 18 30 34 36 34 6 0 17 11 24 25 7 14
15 23 17 21 2 -2 26 18 52 45 27 27 54 49 60 49 6 0 10 3 8 8 -3 9 40 52 46
45 3 -2 8 5 12 16 3 12 11 21 16 21 5 0 28 18 50 40 22 22 45 40 50 40 6 0 7
4 4 10 -3 6 0 10 9 10 8 0 16 4 18 8 2 4 35 34 73 67 39 32 72 62 73 67 2 4
10 8 17 8 8 0 18 6 22 13 8 11 74 64 123 97 12 8 28 20 34 25 28 24 78 56 101
65 14 5 25 14 25 20 0 5 9 10 19 10 11 0 21 4 23 9 3 8 112 61 124 60 3 0 16
7 30 15 13 9 24 14 24 11 0 -3 13 1 29 9 16 9 31 12 35 9 3 -4 6 -2 6 3 0 5 8
10 18 11 9 1 37 7 62 13 25 7 54 13 65 15 11 1 33 5 48 10 32 8 257 13 257 5
0 -3 15 -7 33 -9 66 -6 77 -7 83 -14 4 -4 19 -7 34 -7 15 0 30 -3 34 -7 3 -4
17 -8 29 -10 21 -3 104 -28 137 -40 8 -4 19 -5 24 -4 4 1 14 -3 20 -9 7 -5 16
-7 19 -3 4 3 7 1 7 -6 0 -7 5 -9 10 -6 6 4 17 2 24 -4 7 -6 21 -12 32 -14 10
-2 28 -8 39 -14 11 -6 22 -10 25 -10 8 2 104 -35 114 -44 6 -5 18 -9 28 -9 10
0 18 -5 18 -11 0 -6 7 -9 15 -5 8 3 15 1 15 -4 0 -6 9 -10 19 -10 11 0 23 -5
26 -10 4 -6 11 -7 17 -4 6 4 6 0 -1 -13 -6 -11 -7 -24 -3 -28 4 -5 1 -5 -5 -1
-7 4 -13 2 -13 -4 0 -6 -4 -9 -9 -5 -5 3 -12 -4 -16 -15 -4 -11 -10 -18 -15
-15 -5 3 -11 -4 -15 -15 -4 -11 -10 -18 -15 -15 -5 3 -11 -4 -15 -15 -4 -11
-11 -18 -16 -15 -5 4 -13 -4 -18 -17 -6 -13 -10 -20 -10 -16 -1 9 -55 -43 -60
-57 -5 -14 -44 -40 -54 -37 -5 1 -6 -2 -3 -7 7 -11 -39 -61 -56 -61 -6 0 -8
-3 -5 -7 4 -3 -2 -13 -14 -21 -11 -8 -18 -20 -15 -29 3 -8 1 -11 -5 -8 -5 4
-21 -5 -34 -19 -13 -14 -22 -26 -19 -26 3 0 -1 -6 -8 -14 -7 -8 -16 -12 -20
-9 -5 2 -8 -3 -8 -11 0 -9 -7 -16 -16 -16 -10 0 -14 -6 -10 -15 3 -9 0 -15 -9
-15 -8 0 -15 -6 -15 -13 0 -17 -36 -47 -46 -39 -4 4 -4 2 0 -5 3 -6 2 -14 -4
-18 -6 -4 -8 -11 -5 -16 3 -5 -1 -6 -9 -3 -15 6 -21 -6 -16 -31 1 -5 -2 -7 -6
-3 -9 10 -36 -11 -29 -22 3 -5 -4 -11 -15 -15 -11 -4 -18 -10 -15 -15 3 -5 -7
-18 -21 -29 -15 -12 -23 -21 -18 -21 5 0 1 -5 -9 -11 -9 -6 -15 -14 -12 -20 4
-5 -2 -9 -11 -9 -10 0 -15 -3 -12 -6 4 -3 -9 -21 -28 -41 -35 -36 -43 -50 -21
-37 8 5 7 2 -2 -9 -8 -10 -16 -15 -19 -13 -7 8 -62 -65 -56 -75 3 -5 -2 -9
-11 -9 -9 0 -14 -4 -11 -9 3 -5 -1 -12 -10 -15 -8 -3 -13 -10 -10 -15 3 -5 -1
-11 -9 -15 -8 -3 -15 -13 -15 -22 0 -10 -3 -14 -7 -11 -6 7 -53 -54 -53 -69 0
-4 -12 -17 -26 -30 -14 -13 -22 -29 -19 -34 4 -6 -1 -7 -11 -3 -12 4 -15 3
-10 -5 4 -6 -2 -20 -14 -32 -11 -11 -17 -20 -13 -20 5 0 0 -5 -9 -11 -10 -5
-18 -16 -18 -24 0 -8 -5 -17 -12 -21 -7 -5 -8 -3 -3 6 5 8 4 11 -3 6 -6 -3 -9
-16 -7 -28 3 -11 1 -18 -2 -14 -4 3 -18 -12 -33 -34 -15 -22 -30 -37 -34 -33
-4 5 -6 3 -5 -2 5 -13 -42 -95 -54 -95 -5 0 -7 -7 -3 -15 3 -8 0 -14 -7 -12
-7 1 -11 -4 -10 -10 2 -7 -2 -13 -7 -13 -6 0 -15 -12 -20 -26 -6 -15 -14 -22
-22 -18 -6 4 -8 3 -4 -4 3 -6 -1 -18 -10 -26 -8 -9 -12 -16 -7 -16 4 0 -3 -10
-17 -21 -14 -11 -19 -18 -12 -14 11 6 11 3 1 -13 -7 -12 -17 -18 -21 -16 -4 3
-8 -4 -8 -16 0 -13 -4 -19 -12 -14 -6 4 -8 3 -4 -4 3 -6 -1 -17 -10 -26 -8 -9
-12 -21 -8 -27 4 -7 3 -9 -3 -6 -5 3 -17 -10 -26 -29 -10 -19 -21 -32 -27 -29
-5 3 -7 -3 -5 -14 2 -11 -3 -22 -12 -25 -9 -4 -13 -13 -9 -22 3 -8 2 -13 -2
-11 -4 3 -13 -1 -20 -9 -7 -8 -10 -14 -7 -14 3 0 -2 -11 -11 -25 -8 -13 -13
-28 -10 -33 3 -6 -2 -9 -12 -8 -11 1 -17 -6 -16 -21 0 -12 -3 -20 -8 -17 -4 3
-8 -4 -8 -16 0 -12 -4 -19 -9 -15 -8 4 -22 -23 -24 -45 -1 -3 -9 -14 -19 -24
-10 -11 -18 -23 -18 -28 0 -4 -7 -8 -16 -8 -8 0 -12 -4 -9 -10 3 -5 1 -10 -5
-10 -6 0 -8 -11 -6 -25 3 -14 0 -25 -5 -25 -6 0 -7 -5 -3 -12 5 -7 2 -9 -8 -6
-10 4 -14 0 -13 -15 1 -11 -6 -29 -14 -39 -9 -10 -16 -22 -16 -26 0 -4 -4 -13
-8 -19 -5 -7 -5 -13 -1 -13 4 0 -3 -11 -15 -24 -13 -14 -20 -29 -16 -36 3 -6
1 -9 -6 -8 -7 2 -15 -6 -17 -17 -2 -11 -11 -28 -21 -39 -9 -10 -15 -20 -14
-22 6 -11 -21 -63 -30 -57 -6 4 -8 -2 -5 -15 4 -12 2 -20 -3 -16 -5 3 -9 -4
-9 -16 0 -11 -6 -23 -14 -26 -8 -3 -12 -12 -9 -20 3 -8 -1 -14 -8 -14 -7 0 -9
-3 -6 -7 4 -3 -1 -12 -11 -20 -9 -8 -11 -11 -4 -8 11 6 11 3 0 -16 -7 -13 -17
-27 -22 -30 -5 -4 -6 -14 -3 -23 4 -9 1 -15 -6 -13 -7 1 -11 -4 -10 -10 2 -7
-2 -13 -9 -13 -6 0 -8 -3 -5 -7 4 -3 2 -12 -4 -20 -6 -7 -8 -13 -3 -13 4 0 0
-6 -10 -13 -10 -8 -18 -26 -18 -40 0 -15 -4 -25 -8 -22 -4 2 -13 -14 -20 -35
-7 -22 -18 -40 -24 -40 -6 0 -4 -5 4 -10 13 -8 12 -10 -3 -10 -10 0 -16 -4
-12 -9 3 -5 0 -13 -6 -16 -5 -4 -8 -13 -5 -20 3 -8 1 -15 -5 -17 -5 -2 -11
-14 -14 -28 -3 -13 -12 -28 -20 -33 -13 -7 -14 -11 -3 -25 11 -13 11 -14 -1
-7 -11 6 -13 4 -8 -8 3 -9 1 -19 -5 -23 -7 -5 -8 -2 -3 6 6 9 4 11 -4 6 -7 -5
-10 -14 -7 -22 3 -7 1 -16 -5 -20 -6 -3 -8 -13 -5 -21 3 -8 1 -11 -4 -8 -6 3
-10 0 -10 -7 0 -7 -6 -24 -13 -39 -8 -14 -13 -33 -11 -42 1 -9 -2 -15 -7 -11
-5 3 -9 0 -9 -5 0 -22 -2 -26 -18 -45 -11 -13 -12 -17 -3 -11 11 6 11 3 -2
-14 -8 -13 -13 -30 -10 -37 3 -8 0 -14 -7 -14 -6 0 -9 -4 -6 -9 4 -5 2 -11 -4
-13 -9 -3 -17 -33 -19 -66 -1 -7 -5 -10 -11 -7 -6 3 -7 -1 -4 -9 3 -9 1 -16
-4 -16 -6 0 -9 -9 -7 -20 2 -11 -1 -20 -6 -20 -6 0 -7 -4 -4 -10 3 -5 0 -10
-7 -10 -11 0 -10 -2 0 -9 11 -7 10 -9 -3 -15 -9 -3 -14 -10 -11 -14 3 -5 -1
-19 -8 -33 -7 -13 -11 -30 -8 -37 2 -6 -2 -12 -8 -12 -9 0 -9 -5 1 -17 8 -9 9
-14 3 -10 -12 7 -37 -60 -28 -75 3 -4 -2 -11 -11 -14 -10 -4 -13 -13 -10 -25
4 -11 2 -19 -4 -19 -6 0 -10 -3 -10 -8 3 -20 -2 -43 -9 -38 -5 3 -9 -1 -9 -9
0 -8 5 -11 11 -8 6 4 5 -1 -2 -10 -8 -9 -11 -21 -7 -27 3 -5 -2 -10 -12 -10
-15 0 -16 -2 -3 -10 8 -5 10 -10 4 -10 -10 0 -14 -13 -15 -53 0 -11 -5 -15
-12 -10 -7 4 -5 -2 3 -12 9 -11 10 -16 3 -11 -12 6 -18 -11 -14 -36 0 -5 -5
-8 -12 -8 -8 0 -7 -4 3 -10 11 -7 11 -10 2 -10 -8 0 -10 -5 -6 -12 5 -7 2 -9
-9 -5 -11 4 -14 2 -10 -8 3 -8 10 -12 17 -8 6 3 3 -3 -7 -15 -11 -11 -16 -26
-12 -31 3 -6 1 -11 -5 -11 -6 0 -8 -4 -5 -10 3 -5 0 -10 -7 -10 -9 0 -9 -3 2
-10 8 -5 10 -10 3 -10 -6 0 -10 -11 -9 -25 2 -13 -2 -23 -8 -22 -6 1 -10 -10
-10 -25 1 -16 -2 -28 -5 -28 -4 0 -6 -16 -6 -35 1 -19 -2 -32 -7 -29 -4 3 -8
-7 -8 -21 0 -18 -4 -24 -12 -19 -10 6 -10 4 0 -8 8 -10 9 -19 3 -22 -5 -4 -8
-15 -6 -26 2 -11 -1 -20 -7 -20 -6 0 -8 -3 -5 -7 4 -3 1 -13 -6 -21 -9 -13 -9
-14 1 -8 6 4 12 3 12 -2 0 -6 -7 -13 -15 -16 -13 -5 -14 -10 -4 -27 6 -13 7
-19 1 -15 -6 4 -10 -5 -10 -21 1 -46 -1 -55 -13 -47 -8 4 -8 0 0 -15 7 -13 8
-21 2 -21 -6 0 -8 -7 -5 -15 4 -8 1 -22 -5 -29 -9 -10 -9 -16 -1 -21 6 -4 7
-12 2 -18 -4 -7 -8 -21 -8 -32 1 -11 -3 -23 -9 -27 -6 -5 -5 -8 3 -8 10 0 10
-5 2 -20 -6 -11 -7 -20 -3 -20 4 0 1 -5 -7 -10 -12 -8 -12 -10 -1 -10 11 0 11
-3 1 -15 -9 -11 -10 -18 -1 -29 9 -11 9 -17 -1 -27 -7 -8 -13 -26 -12 -41 1
-16 -4 -28 -10 -28 -6 0 -5 -4 3 -9 12 -8 12 -12 2 -25 -11 -12 -11 -16 -1
-16 9 0 10 -3 1 -13 -8 -10 -7 -17 2 -27 10 -10 9 -12 -6 -7 -13 5 -16 3 -10
-5 10 -18 11 -48 1 -48 -5 0 -4 -9 2 -20 8 -15 8 -20 -2 -20 -10 0 -10 -2 1
-9 10 -7 10 -10 1 -13 -9 -3 -8 -8 4 -20 9 -9 12 -18 7 -20 -10 -3 -14 -22
-12 -51 1 -11 6 -16 14 -11 6 4 4 -1 -5 -11 -12 -13 -14 -24 -7 -42 6 -18 6
-22 -3 -17 -8 5 -9 2 -3 -12 4 -10 7 -30 6 -43 0 -13 5 -31 11 -39 8 -10 8
-13 2 -9 -15 9 -15 -46 0 -55 8 -6 8 -8 -1 -8 -9 0 -10 -7 -3 -24 5 -15 5 -27
-3 -35 -8 -8 -8 -11 2 -11 11 0 11 -3 1 -15 -10 -12 -10 -15 0 -15 9 0 9 -4
-1 -17 -8 -9 -9 -14 -3 -10 7 4 14 0 18 -8 3 -8 0 -15 -7 -15 -8 0 -6 -4 3
-10 9 -6 10 -10 3 -10 -9 0 -9 -11 1 -45 8 -25 10 -42 5 -39 -5 3 -9 0 -9 -5
0 -6 6 -11 13 -11 8 0 7 -4 -3 -10 -8 -5 -10 -10 -3 -10 13 0 12 -18 -1 -39
-6 -9 -5 -12 2 -7 6 3 13 2 17 -4 3 -5 2 -10 -3 -10 -12 0 -2 -53 12 -62 7 -5
6 -8 -4 -8 -13 0 -13 -1 0 -11 12 -8 12 -12 2 -16 -9 -3 -10 -9 -3 -17 15 -17
32 -68 22 -61 -5 3 -9 -8 -9 -25 1 -17 5 -33 10 -36 13 -9 10 -36 -4 -28 -7 4
-2 -5 11 -19 20 -22 22 -29 11 -42 -10 -12 -10 -15 1 -15 11 0 11 -2 -1 -10
-11 -7 -11 -10 -2 -10 7 0 10 -5 7 -10 -3 -6 0 -10 7 -10 11 0 11 -2 0 -9 -10
-6 -10 -10 1 -19 8 -7 13 -27 12 -47 -2 -19 2 -38 7 -41 6 -4 5 -10 -3 -15
-11 -7 -11 -9 -1 -9 7 0 10 -4 7 -10 -3 -5 -1 -10 6 -10 10 0 10 -3 1 -12 -8
-8 -6 -18 10 -41 18 -25 19 -29 5 -24 -11 4 -14 2 -10 -9 3 -7 9 -14 13 -14 5
0 7 -9 5 -20 -2 -11 2 -26 8 -33 7 -7 13 -19 15 -26 3 -12 0 -12 -15 0 -17 13
-17 13 -3 -5 15 -19 22 -40 21 -69 0 -9 4 -15 8 -13 4 3 7 -5 6 -17 -1 -12 0
-26 4 -32 3 -5 6 -14 6 -20 3 -36 19 -84 26 -79 5 3 5 -6 -1 -20 -6 -16 -6
-27 0 -31 6 -3 15 -16 22 -28 11 -21 10 -21 -8 -7 -18 14 -18 14 -1 -6 10 -12
19 -35 20 -53 1 -17 6 -31 11 -31 4 0 6 -12 3 -26 -3 -16 0 -24 7 -21 7 3 12
-9 13 -31 1 -19 6 -38 10 -41 8 -6 14 -24 16 -53 1 -10 5 -18 9 -18 4 0 8 -11
8 -25 0 -14 4 -25 10 -25 5 0 7 -6 4 -14 -3 -7 2 -20 10 -28 11 -12 12 -18 3
-28 -9 -10 -9 -11 1 -6 7 4 12 1 12 -9 0 -9 9 -25 20 -37 10 -12 16 -26 12
-32 -3 -6 -7 -17 -8 -24 -2 -10 1 -11 12 -1 12 10 13 9 8 -5 -3 -9 -1 -16 5
-16 9 0 9 -5 0 -21 -6 -12 -7 -19 -1 -15 14 8 35 -21 29 -39 -4 -8 0 -21 8
-29 8 -8 15 -21 15 -29 0 -8 7 -20 14 -27 10 -8 12 -18 7 -33 -5 -12 -9 -24
-9 -27 -1 -24 -18 -91 -29 -119 -13 -30 -22 -71 -25 -108 -1 -7 -5 -13 -10
-13 -4 0 -8 -9 -8 -20 0 -12 -7 -34 -15 -49 -8 -16 -11 -31 -8 -35 4 -3 1 -6
-6 -6 -7 0 -10 -4 -7 -9 4 -5 2 -11 -4 -13 -6 -2 -12 -12 -14 -23 -2 -11 -14
-37 -26 -57 -12 -21 -18 -43 -14 -49 5 -8 3 -9 -6 -4 -10 6 -12 3 -8 -13 4
-14 2 -20 -4 -16 -7 5 -9 -2 -6 -19 4 -19 1 -24 -10 -20 -11 5 -13 1 -8 -14 4
-13 2 -23 -8 -26 -8 -3 -13 -14 -12 -24 2 -10 -2 -21 -8 -25 -8 -5 -7 -8 2 -8
7 0 10 -5 7 -10 -4 -6 -10 -8 -14 -6 -4 3 -7 -8 -6 -25 1 -18 -4 -33 -14 -39
-12 -7 -12 -9 -2 -10 11 0 11 -3 1 -15 -7 -8 -10 -26 -8 -40 3 -14 1 -28 -5
-32 -6 -3 -7 -1 -3 5 4 7 2 12 -3 12 -15 0 -14 -13 2 -29 10 -11 10 -13 0 -7
-9 5 -13 -3 -13 -28 0 -19 -4 -37 -9 -40 -5 -3 -8 -20 -7 -37 1 -17 -3 -33
-10 -36 -17 -6 -24 -41 -10 -47 8 -3 7 -5 -1 -5 -7 -1 -10 -8 -7 -16 7 -18
-12 -20 -20 -2 -3 6 -3 0 1 -16 3 -16 0 -34 -8 -45 -13 -15 -12 -16 3 -4 14
11 16 11 11 -7 -3 -12 -9 -21 -14 -21 -5 0 -9 -5 -9 -11 0 -5 6 -7 13 -3 6 4
4 -2 -7 -14 -15 -18 -16 -24 -6 -37 10 -12 10 -15 0 -15 -10 0 -10 -3 0 -15 7
-8 17 -12 24 -8 6 4 5 -1 -3 -10 -7 -9 -12 -17 -10 -18 31 -6 40 -6 45 2 3 6
11 5 20 -2 14 -11 19 -2 15 24 -1 5 3 6 8 2 6 -3 8 -12 5 -20 -4 -11 0 -13 18
-8 12 3 35 6 50 7 14 0 24 4 22 8 -8 13 17 19 32 7 12 -10 13 -9 9 3 -5 11 2
14 29 13 28 0 33 2 24 12 -9 11 -14 11 -27 1 -14 -12 -14 -11 -2 5 10 13 17
15 27 6 11 -9 18 -8 29 1 8 7 15 9 15 4 0 -5 7 0 15 10 11 14 15 16 15 5 1 -8
7 -3 15 11 8 14 14 20 15 14 0 -7 11 -11 24 -10 17 1 21 4 15 12 -6 8 -4 14 6
18 9 3 13 2 10 -4 -3 -6 -1 -10 4 -10 6 0 11 3 11 8 0 4 13 16 28 27 22 15 24
16 13 2 -12 -15 -12 -17 3 -11 9 3 16 10 16 14 0 9 60 34 74 31 5 -1 3 6 -5
15 -13 16 -12 17 5 7 16 -9 23 -7 39 11 10 11 16 14 12 6 -4 -8 1 -6 9 4 14
18 21 15 17 -7 -1 -5 3 -6 8 -2 6 3 8 12 4 20 -3 10 1 15 15 15 11 0 23 6 25
13 4 9 8 8 17 -3 10 -13 11 -13 6 3 -3 9 -1 17 5 17 6 0 7 6 3 13 -6 9 -4 9 8
-1 14 -11 18 -10 29 10 7 13 12 28 10 33 -1 6 3 4 11 -3 11 -11 10 -14 -2 -22
-11 -7 -11 -10 -2 -10 7 0 15 7 18 15 4 8 10 15 16 15 5 0 6 -6 2 -12 -4 -8
-3 -10 2 -5 5 5 9 14 9 20 1 7 6 11 13 9 7 -1 12 2 12 7 0 5 8 8 18 7 20 -4
62 14 62 26 0 4 4 7 9 6 11 -3 62 34 98 71 12 13 23 20 23 15 0 -5 5 -1 11 9
5 9 16 17 23 17 8 0 17 7 20 16 4 9 9 14 13 10 3 -3 17 1 31 10 13 9 21 11 18
5 -5 -7 3 -11 23 -11 16 0 31 -4 33 -9 2 -6 15 -11 29 -13 15 -2 33 -9 41 -16
8 -6 18 -9 21 -5 4 3 7 0 7 -7 0 -7 3 -11 6 -7 4 3 19 0 34 -8 15 -8 30 -11
34 -8 3 4 6 0 6 -7 0 -7 3 -10 7 -7 3 4 13 1 21 -6 11 -8 14 -8 9 0 -9 14 22
11 31 -4 4 -5 15 -9 24 -8 11 2 15 -2 11 -12 -5 -13 -3 -13 15 -4 16 8 22 9
22 1 0 -6 5 -8 10 -5 6 3 10 2 10 -4 0 -5 9 -8 20 -6 11 2 23 -1 26 -7 5 -7 2
-8 -6 -3 -9 5 -11 4 -6 -4 6 -9 11 -9 22 0 11 9 15 8 20 -4 4 -12 11 -14 30
-6 14 5 23 5 20 0 -6 -8 48 -24 88 -25 11 -1 21 -6 23 -12 2 -7 13 -10 23 -7
13 3 20 0 20 -8 0 -11 2 -11 10 1 8 13 11 13 22 1 11 -11 11 -13 -1 -6 -10 6
-12 4 -6 -5 7 -11 10 -11 19 2 8 14 12 13 28 -6 11 -13 21 -17 25 -11 11 13
36 18 28 5 -5 -9 15 -14 53 -13 6 1 12 -3 12 -9 0 -5 5 -6 10 -3 6 4 21 0 34
-8 17 -12 26 -13 35 -4 7 7 11 8 11 0 0 -6 9 -13 20 -16 13 -3 18 -1 13 6 -4
7 5 4 20 -6 15 -9 27 -14 27 -9 0 5 7 9 15 9 8 0 12 -4 10 -8 -8 -12 43 -17
55 -5 8 8 9 6 4 -8 -5 -14 -3 -17 7 -14 8 3 23 1 33 -5 16 -8 18 -6 13 8 -6
13 -2 13 19 -4 22 -17 30 -19 42 -9 13 10 14 10 8 1 -6 -12 18 -19 47 -14 4 0
7 -5 7 -11 0 -9 4 -8 10 2 7 11 10 11 10 2 0 -7 4 -11 9 -7 5 3 13 0 17 -6 4
-8 9 -7 15 2 6 10 9 10 9 2 0 -7 7 -10 15 -7 8 4 15 1 15 -5 0 -6 7 -8 16 -4
9 3 20 0 25 -8 7 -11 9 -11 9 -1 0 7 5 10 10 7 6 -4 7 -12 3 -18 -4 -7 0 -6
10 2 14 11 17 11 17 0 0 -11 2 -11 10 1 8 12 10 12 10 1 0 -10 3 -11 14 -2 11
10 17 8 29 -9 8 -12 18 -17 21 -12 5 8 23 9 59 3 5 0 6 -5 2 -10 -3 -5 0 -13
6 -17 8 -4 9 -3 5 4 -4 7 -1 12 8 12 8 0 18 -5 21 -10 5 -8 11 -7 21 1 11 9
14 9 14 0 0 -7 4 -10 9 -6 5 3 13 0 17 -6 4 -8 9 -7 15 2 6 9 9 10 9 2 0 -6 8
-10 18 -8 9 1 25 -4 34 -13 16 -13 18 -13 24 2 5 13 9 14 15 5 4 -7 21 -12 38
-12 16 0 28 -3 26 -7 -2 -3 5 -7 16 -7 11 -1 17 2 14 7 -3 5 8 2 25 -6 16 -9
39 -13 50 -9 11 3 20 2 20 -4 0 -11 39 -9 59 4 9 5 12 4 8 -2 -4 -6 0 -14 9
-17 10 -4 13 -2 8 7 -6 9 -4 9 7 2 8 -6 33 -10 57 -9 23 0 45 -3 49 -9 4 -6 1
-7 -7 -2 -9 6 -11 4 -5 -4 5 -9 10 -10 18 -2 7 7 16 7 29 0 10 -5 18 -6 17 -2
-4 21 3 23 19 6 9 -10 13 -13 8 -6 -7 11 -4 12 15 5 13 -5 30 -7 38 -4 10 3
11 0 5 -9 -7 -12 -5 -12 9 0 9 7 17 9 17 4 0 -14 35 -9 54 6 14 12 16 12 10
-2 -6 -16 18 -19 32 -4 4 4 12 7 18 7 6 0 4 -5 -4 -10 -12 -8 -10 -10 10 -10
15 0 32 6 39 13 10 8 12 8 7 0 -4 -8 1 -11 14 -10 11 1 20 6 20 11 0 5 7 1 16
-10 8 -10 13 -13 9 -6 -4 7 0 12 10 12 10 0 13 5 9 12 -5 7 -3 8 5 4 7 -5 10
-15 6 -23 -4 -13 -3 -14 10 -3 8 7 15 8 15 2 0 -5 7 -13 16 -16 13 -5 14 -4 6
7 -9 10 -8 14 3 14 8 0 15 -4 15 -9 0 -5 5 -6 10 -3 6 4 36 7 68 7 31 1 63 6
71 12 11 8 13 8 7 -1 -9 -16 -1 -16 26 -2 16 9 19 8 13 -3 -3 -7 1 -4 9 6 13
16 16 16 16 5 0 -9 7 -16 15 -16 8 0 12 4 10 8 -3 4 2 9 10 13 8 3 17 1 19 -3
3 -5 16 -6 30 -4 13 3 33 0 44 -6 15 -8 23 -7 32 4 9 11 16 12 25 5 10 -8 15
-8 21 1 5 8 3 10 -7 4 -8 -5 -11 -4 -6 0 4 5 18 9 32 10 18 0 24 -3 20 -14 -4
-10 -2 -11 7 -4 7 6 24 9 36 8 16 -1 27 5 32 19 5 12 9 15 9 8 1 -7 6 -10 12
-7 18 12 59 13 59 2 0 -6 7 -2 16 9 8 10 13 13 9 7 -4 -8 0 -13 10 -13 9 0 13
5 9 11 -4 7 1 7 16 -1 20 -11 22 -10 16 5 -5 15 -4 16 9 5 14 -11 19 -7 16 13
0 4 3 7 9 7 5 0 10 -6 10 -12 0 -8 3 -9 8 -3 4 6 23 11 42 12 50 3 60 5 60 13
0 4 14 6 31 4 16 -2 28 0 25 5 -3 4 8 7 24 6 17 -1 27 2 23 8 -4 6 0 8 9 4 9
-3 21 0 27 6 8 8 11 8 11 -2 0 -7 5 -9 10 -6 6 4 8 11 5 16 -3 5 2 6 11 2 10
-3 15 -2 12 3 -4 5 5 10 18 10 13 1 22 -1 19 -5 -2 -4 2 -8 10 -8 8 0 12 4 9
9 -3 4 4 8 16 8 12 0 19 4 16 9 -3 4 5 8 17 8 42 1 48 3 41 16 -4 6 -4 9 0 5
5 -4 20 -2 34 3 22 8 23 8 12 -6 -7 -8 -17 -12 -23 -8 -6 3 -7 1 -3 -5 4 -6
14 -9 24 -6 12 4 10 0 -6 -13 -18 -15 -20 -21 -10 -31 9 -9 9 -12 -1 -12 -7 0
-9 -4 -6 -10 3 -5 2 -10 -4 -10 -6 0 -8 -7 -5 -15 4 -9 0 -15 -7 -15 -11 0
-11 -3 1 -10 8 -5 10 -10 5 -10 -6 0 -11 -10 -12 -22 -1 -11 -8 -25 -15 -29
-7 -5 -11 -21 -10 -39 3 -20 -2 -32 -12 -36 -13 -5 -14 -9 -5 -20 9 -11 9 -14
0 -14 -7 0 -9 -4 -6 -10 3 -5 1 -10 -4 -10 -6 0 -11 -8 -11 -18 0 -10 -6 -24
-12 -31 -11 -11 -10 -12 2 -6 13 8 13 6 2 -8 -8 -9 -11 -21 -7 -27 3 -5 1 -10
-5 -10 -7 0 -9 -7 -6 -16 4 -10 2 -13 -6 -8 -8 5 -9 2 -4 -11 5 -15 4 -16 -8
-6 -13 11 -14 8 -6 -19 7 -25 6 -31 -4 -27 -9 4 -13 -2 -12 -16 0 -12 -4 -21
-11 -20 -7 2 -10 -6 -8 -16 2 -11 -3 -22 -12 -25 -13 -5 -13 -9 -2 -23 12 -15
12 -16 -5 -10 -16 6 -17 5 -7 -7 9 -11 9 -16 0 -21 -8 -6 -7 -10 2 -16 11 -7
10 -9 -5 -9 -13 0 -17 -5 -13 -20 3 -11 1 -23 -5 -26 -5 -3 -8 -15 -5 -25 3
-11 2 -17 -3 -14 -4 3 -11 -2 -14 -11 -4 -10 -2 -13 7 -8 6 4 4 -2 -6 -13 -13
-14 -15 -23 -7 -28 7 -4 8 -11 2 -18 -5 -7 -8 -34 -8 -60 1 -27 -2 -51 -7 -54
-4 -2 -3 -11 3 -18 13 -15 10 -46 -5 -57 -6 -4 -2 -8 8 -8 10 0 15 -5 12 -10
-4 -6 -1 -18 7 -27 9 -12 9 -15 1 -9 -7 4 -13 2 -13 -3 0 -6 6 -11 14 -11 9 0
12 -8 8 -26 -3 -19 -1 -25 7 -20 6 4 11 2 11 -4 0 -6 6 -8 13 -4 6 4 9 4 5 -1
-4 -4 -2 -15 5 -23 8 -11 8 -14 0 -9 -6 4 -15 2 -19 -4 -4 -8 -3 -9 4 -5 7 4
12 1 12 -10 0 -14 2 -14 18 3 9 10 14 14 10 9 -5 -6 -8 -19 -8 -29 0 -17 2
-18 17 -6 11 10 14 10 9 2 -4 -8 -2 -13 4 -13 6 0 8 -5 4 -11 -5 -8 1 -10 19
-7 15 3 24 2 22 -3 -7 -10 5 -39 17 -39 5 0 6 5 2 12 -4 7 -3 8 5 4 9 -6 9
-11 -1 -24 -11 -13 -11 -14 0 -8 7 4 20 2 30 -6 16 -12 16 -11 3 7 -9 13 -5
11 11 -5 14 -14 23 -29 20 -35 -3 -5 1 -4 9 2 17 17 32 17 24 1 -4 -7 1 -4 9
6 15 18 21 13 18 -15 -1 -9 36 -4 45 6 5 4 2 5 -6 0 -9 -5 -12 -4 -7 3 9 15
46 -7 47 -28 0 -13 1 -13 7 0 8 17 32 25 32 11 0 -5 7 -12 16 -15 13 -5 14 -4
6 7 -9 10 -8 14 3 14 14 0 19 -10 16 -29 -2 -15 10 -8 34 18 14 15 26 22 26
15 3 -26 4 -30 12 -37 4 -4 7 0 7 9 0 9 5 19 12 23 7 4 8 3 4 -4 -4 -7 -1 -13
8 -13 9 -1 24 -2 34 -3 9 -1 22 -5 29 -9 6 -4 14 -3 18 3 6 10 -1 14 -18 11
-5 -1 -6 3 -2 9 3 6 11 8 16 4 5 -3 17 0 26 8 9 7 14 8 11 3 -4 -6 0 -19 8
-30 8 -10 14 -13 14 -7 0 7 6 11 13 10 6 -2 11 5 11 14 -2 25 3 22 20 -9 8
-16 15 -22 16 -15 0 7 5 10 12 6 6 -4 8 -3 4 4 -3 6 -2 13 4 17 5 3 10 -2 10
-12 0 -15 2 -15 9 -3 6 8 7 18 5 22 -3 4 0 8 6 8 7 0 9 -7 6 -17 -4 -10 -4
-14 0 -11 4 4 15 3 25 -2 20 -11 37 4 18 16 -8 5 -9 3 -4 -6 5 -9 4 -11 -4 -6
-6 4 -9 11 -6 16 7 11 35 2 35 -11 0 -5 5 -9 11 -9 5 0 8 4 5 9 -7 11 14 20
32 14 6 -3 9 -9 6 -15 -3 -5 3 -4 14 3 12 7 18 18 14 24 -3 5 2 4 11 -4 9 -7
24 -11 32 -7 9 3 14 2 10 -3 -3 -5 3 -8 12 -6 10 1 23 -2 30 -7 8 -7 16 -3 25
11 l13 21 13 -23 c8 -13 11 -15 8 -4 -3 9 -1 17 5 17 6 0 7 5 3 12 -4 7 -3 8
4 4 7 -4 12 -15 13 -24 0 -14 2 -13 9 3 5 11 9 14 9 8 1 -7 6 -13 12 -13 6 0
9 6 6 13 -3 7 3 13 13 13 10 0 16 -6 13 -13 -3 -7 0 -13 6 -13 6 0 11 10 11
23 0 12 4 17 8 11 9 -13 45 -27 37 -15 -3 5 -1 12 5 16 5 3 10 2 10 -3 0 -6 7
-13 16 -16 10 -4 13 -2 8 6 -5 8 -2 9 11 4 14 -5 15 -4 7 7 -8 10 -7 13 7 13
10 0 17 -6 14 -12 -2 -7 1 -15 7 -19 6 -3 10 -3 9 2 -3 18 2 33 11 33 5 0 7
-8 4 -17 -5 -17 -5 -17 8 -1 11 12 18 14 32 6 15 -8 17 -8 11 2 -6 10 -3 12
10 6 15 -5 16 -4 6 8 -10 12 -9 13 8 9 13 -3 21 -1 21 8 0 7 3 9 6 6 4 -4 1
-13 -6 -22 -11 -13 -10 -14 4 -9 9 3 16 10 16 15 0 6 8 5 19 -1 25 -13 42 -13
19 1 -10 5 -18 15 -18 22 0 7 4 6 10 -3 8 -12 12 -12 19 -2 4 7 15 14 23 16 9
1 24 8 34 16 16 12 17 12 7 0 -17 -18 -16 -27 2 -27 8 0 12 4 10 8 -3 4 2 10
11 13 8 3 12 10 9 16 -4 6 1 7 10 3 13 -5 14 -7 3 -14 -7 -5 -8 -9 -2 -9 6 0
19 9 29 20 13 14 14 20 5 20 -7 0 -11 3 -8 6 4 3 16 1 27 -5 17 -10 23 -7 36
13 11 16 22 23 32 19 11 -5 14 -3 8 6 -6 10 -3 11 15 1 20 -11 21 -10 11 9
-10 18 -8 19 15 15 18 -3 23 -1 18 7 -5 9 -2 10 9 6 11 -4 14 -2 10 9 -3 7 0
15 6 15 26 3 30 4 38 13 5 5 3 6 -4 2 -7 -4 -13 -4 -13 -1 0 10 33 40 44 40 6
1 10 6 8 13 -1 7 3 11 10 10 7 -2 12 4 13 12 0 9 10 15 22 15 12 0 26 4 30 9
4 4 2 6 -6 4 -7 -1 -15 2 -18 9 -2 7 5 10 20 9 18 -2 23 2 23 18 -1 12 5 20
12 18 7 -1 17 9 22 23 5 14 13 25 17 24 21 -4 32 3 38 22 5 13 12 18 22 14 14
-5 14 -3 2 12 -12 14 -12 16 0 8 11 -6 13 -4 7 11 -4 10 -4 15 0 11 9 -9 36
12 29 23 -3 4 3 7 13 6 10 0 16 5 14 13 -2 8 3 11 12 8 8 -3 16 2 19 14 5 17
3 18 -11 8 -9 -6 -4 0 11 15 15 14 23 26 18 26 -12 0 7 51 24 62 6 5 6 8 0 8
-5 0 -9 12 -9 27 2 42 15 84 24 78 5 -3 7 6 5 20 -1 14 2 25 8 25 5 0 3 8 -4
17 -12 15 -12 16 6 10 19 -7 19 -6 2 7 -17 13 -17 14 0 21 12 5 14 9 5 12 -6
3 -9 10 -5 15 11 19 11 68 0 68 -8 0 -8 3 0 11 6 6 9 18 6 27 -5 11 -2 13 6 7
10 -6 11 -3 2 13 -15 28 -14 45 2 36 9 -6 9 -5 0 7 -7 9 -11 25 -8 37 2 12 0
24 -6 27 -5 4 -5 14 2 27 6 12 7 18 1 14 -5 -3 -13 1 -16 10 -3 8 -2 12 4 9 5
-3 5 7 -1 25 -6 16 -14 30 -18 30 -4 0 -8 6 -8 14 0 8 7 12 16 9 15 -4 15 -3
0 9 -8 7 -15 25 -14 41 1 15 -2 27 -7 27 -5 0 -7 13 -4 30 2 16 -1 33 -6 36
-7 5 -8 2 -3 -7 7 -12 5 -12 -6 -1 -12 11 -12 14 1 22 10 7 11 13 5 18 -12 8
-13 27 -2 38 4 5 -2 17 -15 27 -13 10 -18 16 -12 13 22 -11 24 24 3 43 -14 13
-17 21 -9 26 8 5 8 11 -1 21 -9 11 -8 14 7 15 16 0 16 2 -3 9 -13 5 -23 12
-23 15 0 4 4 4 9 1 5 -3 8 10 7 30 -2 20 -9 39 -15 44 -10 5 -10 9 -2 15 9 5
9 10 0 21 -6 8 -8 14 -4 14 4 0 1 8 -6 17 -8 10 -9 14 -2 10 8 -5 10 -1 7 15
-3 13 -8 39 -11 58 -3 19 -11 41 -17 49 -8 11 -8 13 2 7 6 -4 12 -3 12 3 0 5
-6 12 -12 14 -10 4 -9 6 1 6 11 1 11 4 0 18 -12 15 -12 16 1 8 13 -8 13 -6 2
8 -8 9 -11 21 -7 27 3 5 0 10 -7 10 -9 0 -9 3 2 10 10 6 11 10 3 10 -7 0 -13
5 -13 11 0 5 4 7 10 4 6 -3 7 1 4 9 -3 9 -11 13 -18 9 -6 -4 -5 1 3 10 8 11 9
17 3 17 -7 0 -9 7 -5 17 4 11 3 14 -5 9 -8 -5 -10 -2 -6 8 3 9 11 13 18 9 6
-3 2 3 -8 15 -11 12 -14 22 -8 22 8 0 9 7 2 24 -6 17 -5 26 3 30 7 2 4 5 -7 5
-16 1 -17 3 -5 18 8 10 9 14 2 10 -15 -9 -14 35 2 45 6 5 3 8 -7 8 -14 0 -15
5 -8 30 6 22 5 34 -6 45 -9 8 -11 15 -6 15 5 0 9 7 9 15 0 8 -3 15 -6 15 -4 0
-8 11 -9 26 -1 17 2 23 11 19 6 -4 4 0 -6 8 -14 11 -15 16 -5 20 8 3 5 6 -7 7
-19 1 -19 1 -2 11 14 8 16 14 6 25 -9 11 -8 14 2 14 10 1 8 4 -4 11 -15 9 -16
12 -2 25 8 8 21 12 27 8 10 -5 10 -4 1 6 -8 9 -6 17 8 31 10 10 24 19 30 19 5
0 7 5 4 10 -3 6 -1 10 5 10 6 0 8 5 4 12 -5 8 0 9 14 6 13 -4 20 -2 16 4 -7
11 25 50 36 43 4 -3 7 1 6 8 0 6 2 13 6 15 17 6 58 54 58 68 0 8 3 13 8 11 9
-5 42 29 35 36 -2 3 5 8 16 12 12 4 18 12 14 21 -3 8 1 14 11 14 9 0 16 7 16
15 0 9 6 12 18 8 9 -3 14 -3 10 2 -10 10 10 47 22 40 5 -3 11 4 15 15 3 11 11
20 16 20 5 0 9 9 9 20 0 13 5 18 15 14 11 -5 13 -2 8 12 -4 11 -3 15 5 10 7
-4 14 3 18 20 4 16 9 22 14 14 5 -8 9 -4 13 10 4 14 10 19 18 14 8 -4 10 -3 5
4 -4 7 -2 12 4 12 6 0 9 4 6 8 -3 5 4 14 14 22 10 8 16 18 13 24 -4 5 0 7 9 3
12 -4 15 0 13 19 -2 21 0 22 14 12 9 -7 13 -9 9 -4 -4 5 0 15 8 23 8 8 12 19
9 24 -4 5 0 6 8 3 10 -3 17 4 21 21 4 14 10 24 14 21 5 -3 16 11 26 29 11 19
23 32 27 29 5 -3 9 4 9 16 0 12 5 18 10 15 6 -3 10 0 10 8 0 8 10 22 23 31 12
9 16 14 8 10 -9 -5 -12 -3 -7 4 4 7 15 12 24 13 12 0 13 2 4 6 -10 4 -8 9 7
20 12 8 19 19 15 24 -3 5 0 8 8 7 7 -2 12 5 12 14 -1 10 2 16 6 13 4 -3 11 2
14 11 3 8 11 12 16 9 6 -4 9 -2 8 3 -3 10 14 38 44 74 10 11 15 25 11 31 -3 6
-1 7 6 3 7 -5 17 5 26 26 8 18 15 29 15 23 0 -5 8 2 16 18 8 15 20 27 26 27 6
0 9 3 5 6 -3 4 -1 12 6 19 7 6 21 24 32 39 11 16 26 34 33 41 6 8 12 18 12 24
0 6 4 11 9 11 5 0 13 9 16 20 4 11 11 18 16 14 5 -3 8 -2 7 3 -4 12 42 83 53
83 6 0 8 4 5 8 -4 7 7 24 54 79 5 7 10 14 10 17 0 6 61 98 69 106 4 3 12 17
20 32 8 15 23 37 33 48 10 11 15 20 11 20 -4 0 1 7 11 15 11 8 17 15 13 15 -4
0 10 27 33 59 22 33 40 65 40 70 0 6 4 11 9 11 5 0 14 14 20 30 5 17 15 30 22
30 7 0 9 3 6 6 -4 4 1 19 11 33 10 14 24 38 32 54 7 15 17 27 22 27 5 0 6 5 3
10 -3 6 -2 10 3 10 4 0 14 16 22 35 8 19 17 35 22 35 4 0 8 7 8 15 0 8 5 15
11 15 5 0 8 4 4 9 -3 5 3 17 12 27 10 10 17 19 16 21 -7 9 11 32 20 26 6 -3 7
-1 3 5 -6 9 48 128 65 142 3 3 27 50 54 105 26 55 51 102 54 105 3 3 7 11 9
18 1 7 20 51 42 96 22 46 40 88 40 95 0 6 4 11 10 11 5 0 9 3 8 8 -1 4 6 24
15 46 9 21 17 45 17 52 0 8 5 14 11 14 5 0 8 3 6 8 -3 4 3 24 13 44 9 20 20
48 24 62 3 14 11 26 17 26 6 0 8 4 5 9 -4 5 3 31 15 58 11 26 23 57 25 68 2
11 8 21 13 23 6 2 7 10 4 18 -3 8 0 14 6 14 6 0 8 6 5 14 -3 8 0 17 5 21 6 3
9 10 6 15 -3 5 -1 11 5 15 5 3 10 16 10 28 0 13 7 33 16 45 8 12 13 22 11 22
-3 0 6 30 19 68 13 37 24 75 24 85 0 9 5 17 11 17 5 0 8 4 5 9 -3 5 1 25 9 45
8 20 15 38 15 41 -1 8 11 59 17 75 4 8 5 18 5 23 -1 4 2 7 8 7 5 0 7 6 4 14
-3 8 0 17 5 21 6 3 9 10 6 15 -3 5 2 30 11 57 9 26 17 55 18 63 1 8 8 35 16
60 7 25 14 51 16 57 1 7 14 63 29 124 14 61 27 120 28 130 1 11 4 19 7 19 3 0
6 8 6 18 1 14 6 49 18 117 1 6 4 15 7 20 4 6 5 18 4 28 -2 9 0 17 4 17 4 0 7
10 6 23 -1 12 2 36 6 52 8 30 17 81 25 140 2 17 6 44 9 60 7 45 19 141 31 245
2 19 6 55 9 80 7 65 17 209 18 253 0 20 3 37 6 37 9 0 10 722 1 735 -4 6 -6
34 -6 63 1 28 -1 52 -4 52 -3 0 -6 25 -5 55 0 30 -3 55 -7 55 -4 0 -6 10 -4
22 1 12 0 38 -5 58 -8 41 -21 135 -22 168 -1 12 -4 22 -7 22 -3 0 -7 15 -9 33
-5 55 -7 62 -13 72 -3 6 -6 21 -7 35 -2 52 -6 75 -15 82 -5 3 -10 27 -10 52
-1 25 -3 46 -6 46 -3 0 -7 8 -8 18 -2 21 -10 57 -12 57 -1 0 -3 7 -5 15 -2 8
-6 29 -10 45 -11 49 -26 128 -28 153 -1 12 -6 22 -11 22 -4 0 -6 6 -3 14 3 8
3 17 -1 20 -3 4 -8 19 -10 34 -2 15 -14 58 -27 95 -13 38 -21 76 -18 85 4 10
2 13 -5 8 -8 -5 -12 1 -12 18 0 14 5 28 11 32 11 7 69 -43 69 -60 1 -22 50
-48 78 -41 26 5 73 66 120 155 7 14 19 30 26 35 7 6 15 18 19 28 11 28 40 20
77 -23 34 -39 35 -39 60 -23 32 21 42 32 59 66 8 15 18 27 23 27 4 0 8 6 8 13
0 7 9 23 20 35 11 12 20 25 20 30 0 5 11 19 25 32 22 20 27 21 54 10 65 -26
108 16 113 113 0 15 4 27 7 27 3 0 6 21 5 48 -1 48 11 76 27 66 5 -3 9 0 9 6
0 6 5 8 10 5 6 -3 10 -1 10 4 0 6 3 10 8 10 4 -1 9 -1 12 1 27 10 57 7 79 -7
14 -10 44 -27 66 -39 99 -52 125 -68 125 -76 0 -5 4 -7 9 -4 4 3 17 -1 27 -9
10 -8 38 -24 62 -35 28 -13 41 -24 36 -31 -4 -7 -3 -9 4 -5 11 6 212 -89 223
-106 3 -5 8 -9 10 -7 9 5 49 -13 49 -22 0 -5 3 -8 8 -7 12 4 72 -24 72 -33 0
-5 3 -8 8 -7 13 4 82 -26 82 -36 0 -5 3 -7 6 -4 3 3 38 -9 77 -27 68 -30 92
-40 109 -44 4 -1 32 -13 63 -26 30 -14 55 -22 55 -20 0 3 10 0 23 -6 12 -7 35
-14 50 -16 16 -2 36 -7 45 -12 20 -11 87 9 111 34 9 8 21 30 27 47 16 47 32
53 102 38 34 -7 60 -15 58 -19 -2 -3 8 -7 22 -7 45 -3 122 -25 122 -35 0 -6 9
-8 19 -4 11 3 22 1 26 -5 3 -6 10 -8 15 -5 4 3 27 -2 51 -11 24 -8 60 -18 79
-20 19 -3 38 -10 42 -17 6 -9 8 -9 8 0 0 7 9 9 28 4 62 -17 153 35 203 116 11
18 29 35 40 38 19 6 85 -22 178 -75 46 -26 114 -54 125 -51 5 1 16 -1 25 -5
23 -9 80 -10 74 -1 -2 4 7 8 21 8 34 2 37 3 64 17 12 7 27 10 32 7 6 -3 10 -2
10 3 0 10 100 57 113 54 5 -2 6 1 3 6 -7 12 131 75 145 66 7 -4 9 -3 5 4 -7
12 46 27 86 23 15 -1 60 -19 100 -39 40 -19 89 -38 108 -40 19 -2 41 -9 49
-15 12 -9 13 -9 7 1 -5 8 1 12 18 14 48 2 51 3 57 11 3 4 16 9 27 10 12 1 22
5 22 9 0 4 9 8 20 8 11 0 20 4 20 8 0 13 50 33 63 26 7 -4 9 -3 5 1 -9 10 84
66 112 68 10 1 16 5 14 9 -3 4 0 9 5 9 26 3 30 4 37 12 10 9 97 9 91 0 -3 -5
14 -9 36 -10 74 -3 87 -5 87 -14 0 -5 6 -6 13 -4 6 2 25 7 41 9 15 3 40 13 55
23 14 9 30 16 34 15 5 -1 6 2 2 8 -4 6 2 25 12 43 15 25 18 47 16 102 -2 39
-5 91 -6 117 -1 27 -5 48 -8 48 -3 0 -6 6 -7 13 -5 57 -11 95 -17 110 -4 9 -4
24 -1 33 3 8 2 13 -3 10 -5 -3 -12 16 -17 42 -9 57 -9 56 -23 110 -7 23 -9 47
-6 52 3 6 1 10 -5 10 -7 0 -10 7 -7 15 4 8 1 17 -4 21 -6 3 -9 15 -6 25 3 11
1 19 -3 19 -7 0 -24 64 -25 95 0 6 -3 13 -8 16 -4 3 -9 19 -12 35 -2 16 -11
48 -20 72 -8 24 -12 48 -9 54 4 6 3 8 -3 5 -5 -3 -15 17 -23 46 -7 29 -17 59
-21 67 -4 8 -18 44 -30 80 -12 36 -28 77 -36 92 -7 15 -14 31 -14 35 -1 5 -8
24 -16 43 -8 19 -16 40 -17 45 -1 6 -12 28 -23 50 -11 22 -21 42 -21 45 -1 12
-16 45 -23 50 -7 5 -60 100 -105 190 -16 30 -34 61 -41 68 -17 17 -99 144
-101 155 0 5 -7 14 -15 20 -14 12 -91 112 -112 146 -5 9 -16 20 -22 24 -7 4
-13 12 -13 16 0 9 -27 39 -122 136 -27 28 -45 54 -41 59 4 4 3 6 -3 4 -6 -2
-53 38 -105 89 -52 51 -111 105 -131 120 -21 15 -37 34 -38 41 0 7 -4 11 -9 7
-8 -4 -95 62 -111 85 -3 4 -14 10 -25 14 -11 3 -36 21 -55 38 -19 18 -37 32
-40 31 -9 -2 -100 60 -100 69 0 4 -3 7 -7 7 -18 -3 -31 2 -51 21 -12 11 -24
20 -27 20 -3 0 -9 0 -13 0 -5 0 -18 9 -30 20 -12 12 -22 18 -22 15 0 -8 -104
46 -112 59 -4 6 -8 7 -8 3 0 -4 -10 -2 -22 5 -13 6 -27 13 -33 14 -5 1 -28 10
-50 20 -22 10 -42 18 -45 19 -13 2 -106 39 -115 46 -5 3 -25 10 -43 14 -19 4
-30 11 -26 17 4 6 2 8 -3 5 -6 -4 -37 3 -69 14 -33 11 -63 22 -69 23 -43 11
-102 29 -110 34 -5 4 -19 8 -30 9 -11 2 -22 8 -23 13 -2 6 -8 8 -12 5 -10 -6
-159 34 -177 48 -14 10 -7 31 8 22 5 -4 9 -2 9 2 0 9 89 39 104 35 4 -2 13 1
20 6 18 15 108 42 117 36 5 -3 9 -1 9 4 0 9 34 23 65 27 6 1 27 10 48 19 21 9
42 14 47 11 4 -3 10 0 12 5 2 6 10 12 18 14 8 2 23 6 32 10 9 4 22 9 30 10 7
1 23 8 36 14 12 7 22 10 22 6 0 -3 7 -1 15 6 8 6 20 8 26 4 7 -4 9 -3 6 3 -4
6 6 16 23 22 17 5 30 7 30 3 0 -4 4 -1 9 6 5 8 20 15 34 15 14 1 23 4 21 6 -7
7 169 70 180 64 5 -3 6 -1 3 4 -5 8 64 44 93 48 3 0 20 9 37 18 18 10 34 17
35 16 2 -1 21 7 43 18 22 12 43 21 48 22 4 0 21 8 37 16 17 9 30 12 30 9 0 -4
9 1 20 11 11 10 20 15 20 11 0 -3 11 1 25 10 13 8 30 12 36 8 8 -4 9 -3 5 4
-4 7 -2 12 4 12 6 0 29 9 52 20 22 11 44 17 49 15 4 -3 9 -1 11 4 3 7 159 80
183 85 6 1 34 14 63 29 29 15 58 25 64 21 6 -4 8 -3 5 3 -4 6 3 14 16 18 12 4
24 8 27 9 3 1 43 21 89 44 45 23 88 39 95 35 6 -3 7 -2 3 2 -10 11 122 76 137
68 6 -3 8 -3 4 2 -10 11 41 37 55 28 5 -3 7 -2 4 4 -4 6 28 27 71 48 42 20 86
42 97 49 36 21 125 66 130 66 3 0 15 9 27 19 11 11 25 18 29 15 4 -2 10 0 14
6 4 6 11 7 17 4 6 -4 8 -3 5 3 -3 5 20 23 51 39 31 16 59 31 62 34 13 13 90
60 90 54 0 -3 6 1 14 9 8 7 38 29 68 48 67 43 65 41 114 83 23 20 44 33 48 29
3 -3 6 1 6 10 0 9 9 22 19 29 11 8 25 26 32 41 6 14 16 24 22 20 6 -3 7 -2 4
4 -7 10 13 73 23 73 3 0 5 26 4 58 0 31 3 62 8 69 5 7 5 14 -2 18 -5 3 -10 24
-10 47 0 37 6 46 78 117 77 76 118 111 228 196 32 25 72 55 88 68 16 12 38 32
49 45 11 12 24 22 28 22 10 0 72 64 111 113 18 23 35 44 38 47 3 3 13 23 22
45 24 60 31 78 34 100 2 11 7 31 10 45 4 14 8 68 9 120 2 52 3 105 4 117 2 47
84 109 181 138 14 4 50 20 81 36 31 15 60 25 64 21 4 -4 5 -2 4 3 -2 6 16 30
40 55 24 25 47 54 52 65 5 11 13 27 19 35 10 14 25 53 30 75 1 6 7 19 13 30 6
11 12 29 14 39 2 11 7 24 12 30 5 6 14 35 22 64 7 28 16 52 21 52 4 0 5 7 2
15 -4 8 -1 15 6 15 6 0 9 4 6 9 -6 8 6 54 24 96 5 11 12 36 16 55 3 19 10 40
14 45 5 6 9 13 9 18 1 4 1 8 2 10 0 1 2 9 4 17 17 83 103 266 123 262 8 -1 11
2 8 7 -7 11 48 53 58 44 3 -3 6 -1 6 5 0 7 5 12 11 12 21 0 114 51 142 78 15
15 34 38 41 52 59 113 86 172 88 190 0 5 14 42 34 95 4 11 8 22 8 25 1 3 5 11
9 18 5 6 6 12 3 12 -3 0 2 19 10 43 9 23 18 53 20 67 3 13 10 30 16 37 6 7 8
13 4 13 -3 0 -1 12 5 28 6 15 13 38 16 52 2 13 10 28 16 32 7 4 9 8 4 8 -4 0
-1 16 7 35 8 19 12 35 9 35 -3 0 0 6 6 14 7 8 14 24 16 35 6 34 41 78 151 193
56 58 105 115 109 127 3 12 11 21 16 21 5 0 8 3 7 8 -1 4 4 20 10 35 7 16 12
33 12 38 0 6 3 8 8 6 6 -4 10 27 15 146 1 20 -2 37 -6 37 -5 0 -7 6 -4 13 2 6
-2 27 -10 45 -7 18 -11 37 -8 42 3 4 1 10 -4 12 -5 1 -11 10 -13 18 -2 8 -7
18 -11 21 -5 3 -9 12 -10 20 -2 8 -13 29 -25 47 -13 17 -24 41 -25 51 -1 11
-3 18 -6 16 -2 -3 -25 28 -50 68 -25 40 -62 95 -81 122 -19 28 -33 52 -32 53
2 2 -3 9 -11 15 -7 7 -31 37 -53 67 -21 30 -47 64 -56 75 -56 67 -86 110 -81
119 3 5 1 6 -4 3 -6 -4 -18 4 -26 17 -9 13 -22 30 -29 37 -77 82 -146 168
-140 174 4 5 2 5 -4 2 -13 -8 -37 16 -27 26 3 4 0 7 -8 7 -8 0 -30 19 -49 43
-19 23 -60 65 -91 94 -32 28 -55 54 -51 57 3 3 -2 6 -10 6 -9 0 -34 20 -57 45
-22 24 -41 42 -41 38 0 -4 -15 7 -32 24 -49 46 -180 140 -205 148 -13 3 -23
11 -23 16 0 6 -4 8 -9 4 -5 -3 -15 0 -23 7 -7 7 -48 31 -91 53 -42 21 -77 42
-77 45 0 4 -6 7 -12 7 -19 2 -132 44 -142 54 -6 5 -21 9 -34 9 -13 0 -21 3
-19 8 3 4 -5 8 -16 8 -30 2 -62 11 -86 24 -12 6 -21 8 -21 6 0 -3 -18 1 -39 9
-22 7 -54 16 -73 19 -18 3 -58 10 -88 16 -30 6 -75 14 -100 17 -25 2 -51 9
-57 15 -9 7 -13 7 -13 -1 0 -8 -8 -10 -21 -6 -12 4 -43 9 -68 10 -68 5 -358 5
-421 0 -101 -9 -155 -14 -155 -16 0 -2 -32 -7 -81 -12 -22 -2 -45 -6 -50 -10
-6 -3 -19 -4 -30 -3 -10 2 -21 0 -24 -4 -3 -4 -21 -10 -40 -13 -19 -3 -53 -10
-74 -16 -22 -5 -44 -8 -48 -5 -4 3 -8 1 -8 -4 0 -8 -64 -27 -77 -23 -2 0 -23
-8 -48 -19 -25 -11 -47 -20 -50 -20 -9 -1 -40 -13 -124 -46 -46 -18 -88 -31
-92 -28 -5 3 -9 1 -9 -4 0 -13 -50 -33 -63 -26 -7 4 -9 4 -5 -1 6 -7 -198
-113 -227 -118 -5 -1 -13 -6 -16 -11 -4 -5 -12 -6 -17 -2 -12 7 -6 33 15 57 7
9 10 19 6 22 -3 4 -1 7 5 7 7 0 11 3 10 8 -2 11 44 106 56 114 6 4 7 8 2 8 -4
0 -1 11 8 25 9 14 14 25 12 25 -3 0 7 24 22 53 14 28 27 55 27 59 0 3 3 10 8
14 4 4 7 16 7 26 0 10 5 18 10 18 6 0 10 7 10 15 0 8 4 23 10 33 17 31 90 214
90 227 0 7 4 15 10 17 5 2 11 12 13 23 2 11 8 31 14 45 63 157 163 447 156
454 -4 3 0 6 7 6 7 0 11 3 7 6 -3 3 5 36 18 73 19 54 37 113 51 164 1 4 2 8 4
10 1 1 3 9 5 17 2 8 6 24 9 35 2 11 25 95 50 187 24 92 47 182 50 200 3 18 10
49 14 68 5 19 9 38 10 43 1 4 2 8 3 10 0 1 2 14 4 30 2 15 8 51 14 80 6 28 13
70 16 92 3 22 7 55 10 74 2 19 7 66 10 105 12 131 14 151 26 195 10 36 19 46
48 58 20 9 47 20 61 26 14 6 27 11 30 12 3 0 15 6 26 13 19 10 23 9 28 -11 3
-12 6 -53 6 -90 0 -52 4 -69 15 -74 9 -3 19 -2 23 1 3 4 5 53 4 110 -3 84 0
104 12 109 15 6 17 -1 32 -88 9 -53 22 -69 42 -53 8 7 22 13 31 13 14 0 16 17
19 108 3 104 4 108 27 117 14 5 25 16 25 24 0 7 6 19 14 25 16 14 20 -26 25
-234 2 -120 12 -155 36 -135 10 8 12 59 8 227 -5 199 -4 219 13 252 10 20 23
39 27 42 5 3 9 9 8 12 0 4 9 27 20 52 11 25 22 54 25 63 2 9 11 42 20 72 16
56 22 91 29 170 2 25 4 45 5 45 6 0 2 280 -5 370 -4 61 -8 120 -8 133 -1 12
-4 22 -7 22 -3 0 -7 17 -9 38 -3 43 -5 51 -15 112 -4 25 -8 53 -10 62 -1 10
-5 21 -9 24 -4 4 -7 18 -7 30 0 13 -11 69 -26 126 -14 57 -27 110 -29 118 -18
76 -31 116 -40 122 -5 4 -7 8 -3 8 4 0 0 21 -8 48 -8 26 -16 54 -18 62 -2 8
-21 67 -42 130 -21 63 -39 117 -39 120 -1 3 -5 14 -10 25 -4 11 -25 65 -47
120 -21 55 -46 115 -53 133 -8 17 -22 48 -30 67 -35 81 -49 114 -81 180 -19
38 -34 75 -34 82 0 6 -3 13 -7 15 -10 4 -93 171 -93 186 0 7 -4 12 -10 12 -5
0 -10 5 -10 12 0 14 -91 172 -102 176 -4 2 -8 12 -8 23 0 10 -4 19 -8 19 -5 0
-17 18 -27 40 -10 22 -22 40 -27 40 -4 0 -8 6 -8 14 0 8 -3 16 -8 18 -4 2 -27
32 -51 67 -47 69 -48 71 -83 114 -13 15 -34 41 -48 58 -73 90 -112 131 -175
184 -33 28 -62 53 -65 56 -19 22 -136 91 -159 94 -16 2 -38 12 -49 23 -11 11
-36 26 -56 33 -20 7 -36 19 -36 25 0 10 -46 32 -80 39 -135 28 -471 48 -500
30 -5 -3 -11 -1 -15 4 -3 6 -11 8 -18 5 -7 -2 -33 -6 -58 -8 -24 -2 -51 -6
-59 -9 -8 -3 -42 -8 -75 -11 -70 -7 -124 -15 -145 -23 -26 -11 -162 -38 -172
-35 -5 1 -8 -3 -8 -8 0 -6 -8 -10 -17 -10 -29 0 -218 -62 -225 -74 -4 -6 -8
-8 -8 -4 0 9 -200 -74 -248 -102 -18 -11 -39 -20 -46 -20 -7 0 -22 -9 -34 -20
-12 -12 -22 -18 -22 -15 0 4 -15 -2 -32 -13 -58 -35 -122 -72 -155 -89 -18 -9
-33 -20 -33 -25 0 -4 -7 -8 -15 -8 -8 0 -15 -4 -15 -10 0 -5 -7 -10 -15 -10
-8 0 -15 -5 -15 -12 0 -6 -3 -9 -6 -6 -3 4 -14 -1 -23 -10 -30 -29 -75 -62
-84 -62 -4 0 -5 -4 -2 -10 3 -5 2 -10 -4 -10 -20 0 -181 -185 -181 -208 0 -6
-6 -15 -13 -19 -7 -4 -29 -37 -49 -73 -19 -36 -47 -86 -61 -112 -14 -25 -23
-49 -20 -52 4 -3 1 -6 -6 -6 -7 0 -9 -4 -6 -10 3 -5 1 -10 -4 -10 -6 0 -11 -9
-11 -20 0 -11 -5 -20 -12 -20 -6 0 -9 -3 -5 -6 3 -3 -3 -25 -13 -49 -10 -24
-16 -46 -13 -49 4 -3 1 -6 -5 -6 -7 0 -11 -3 -10 -7 1 -5 -4 -25 -11 -46 -7
-21 -14 -46 -16 -55 -2 -9 -4 -17 -5 -17 -5 0 -13 -81 -13 -145 -1 -79 3 -117
16 -137 6 -9 3 -11 -7 -7 -9 3 -16 9 -16 13 0 3 -12 6 -27 7 -16 0 -45 3 -65
6 -62 10 -180 -8 -244 -38 -32 -14 -61 -30 -64 -33 -3 -4 -25 -21 -50 -38 -56
-39 -140 -118 -140 -133 0 -6 -4 -8 -10 -5 -5 3 -10 0 -10 -8 0 -8 -9 -22 -20
-32 -11 -10 -17 -21 -15 -26 3 -4 0 -11 -5 -14 -6 -4 -16 -17 -21 -28 -6 -12
-18 -38 -29 -57 -10 -19 -16 -38 -13 -42 2 -5 0 -8 -5 -8 -8 0 -17 -29 -28
-85 -1 -5 -3 -12 -4 -15 -7 -20 -10 -58 -9 -140 1 -121 0 -120 12 -120 6 0 8
-2 5 -5 -5 -5 -1 -33 16 -114 9 -42 28 -96 40 -110 9 -12 8 -13 -4 -6 -12 6
-13 5 -2 -6 6 -7 12 -21 12 -30 0 -9 7 -22 15 -29 9 -7 14 -15 11 -17 -3 -3
36 -84 74 -153 8 -14 15 -27 15 -30 1 -3 11 -21 23 -40 11 -19 21 -38 22 -42
0 -5 10 -19 21 -32 12 -13 21 -27 20 -30 -1 -3 6 -14 15 -23 8 -10 29 -36 45
-58 40 -54 88 -111 125 -149 56 -57 145 -136 153 -136 5 0 11 -3 13 -7 4 -10
65 -53 74 -53 4 0 15 -6 23 -14 37 -32 177 -77 250 -80 32 -1 56 -27 44 -48
-2 -5 1 -8 6 -8 6 0 11 -6 11 -14 0 -8 7 -27 14 -43 8 -15 18 -35 21 -43 3 -8
16 -33 30 -55 13 -22 31 -53 40 -70 10 -16 27 -40 38 -52 11 -13 18 -23 15
-23 -3 0 14 -21 38 -47 24 -27 44 -52 44 -56 0 -5 6 -14 13 -21 7 -7 29 -123
50 -262 63 -413 99 -598 118 -602 27 -5 27 17 4 143 -23 120 -19 184 4 80 10
-44 16 -55 32 -55 18 0 20 6 18 47 -3 40 0 48 15 51 21 4 21 2 -8 197 -8 55
-17 125 -20 157 l-6 56 80 -48 c45 -27 85 -50 91 -52 5 -2 11 -12 14 -23 2
-11 11 -51 20 -90 8 -38 19 -81 25 -95 5 -14 11 -47 12 -75 2 -27 6 -52 10
-55 3 -3 9 -23 11 -45 3 -22 12 -83 20 -135 8 -52 19 -131 23 -175 17 -183 4
-910 -16 -910 -1 0 -3 -18 -5 -40 -2 -22 -6 -53 -10 -70 -3 -16 -8 -46 -10
-65 -3 -19 -7 -46 -10 -60 -3 -14 -9 -50 -15 -80 -6 -30 -12 -66 -15 -80 -3
-14 -7 -36 -10 -50 -4 -22 -70 -269 -78 -295 -2 -5 -9 -29 -16 -52 -6 -24 -15
-43 -19 -43 -9 0 -62 63 -62 75 0 6 -16 23 -35 39 -19 16 -32 33 -29 37 3 5 0
9 -7 9 -6 0 -27 14 -46 30 -18 17 -38 30 -44 30 -6 0 -7 6 -3 13 4 6 3 9 -1 4
-5 -4 -19 0 -32 8 -13 9 -23 13 -23 9 0 -4 -6 -2 -12 4 -7 6 -30 13 -50 17
-21 4 -38 10 -38 14 0 5 -37 9 -105 11 -30 1 -102 -8 -116 -14 -9 -4 -27 -8
-40 -10 -27 -4 -49 -11 -97 -32 -18 -8 -37 -14 -43 -14 -5 0 -27 -11 -48 -24
-21 -14 -42 -22 -45 -19 -3 4 -6 2 -6 -4 0 -16 -140 -107 -150 -97 -5 5 -12
27 -16 49 -3 22 -10 48 -15 58 -5 9 -7 17 -3 17 3 0 2 6 -3 13 -6 6 -25 54
-42 105 -18 52 -41 112 -51 134 -12 28 -15 49 -10 73 4 19 6 35 5 37 -4 3 -18
241 -19 310 -1 21 -4 38 -8 38 -4 0 -7 8 -6 18 0 9 -3 35 -7 57 -4 22 -8 55
-9 72 0 18 -5 33 -10 33 -4 0 -6 11 -4 25 3 13 2 22 -3 20 -7 -5 -25 67 -22
92 0 7 -4 10 -9 7 -5 -3 -8 0 -7 7 2 14 -2 29 -26 84 -18 42 -29 79 -27 88 1
4 -3 7 -9 7 -6 0 -9 7 -5 15 3 8 1 15 -4 15 -9 0 -26 39 -22 53 1 4 -2 7 -6 7
-5 0 -14 16 -22 35 -8 19 -16 35 -19 35 -4 0 -12 15 -20 33 -8 17 -35 64 -61
102 -68 102 -103 165 -92 165 11 0 4 118 -10 143 -5 10 -7 21 -4 24 2 3 1 16
-4 29 -6 14 -6 26 0 29 12 7 5 42 -15 72 -9 13 -13 28 -10 33 3 6 1 10 -4 10
-6 0 -11 9 -11 20 0 11 -4 20 -9 20 -5 0 -9 10 -9 23 -1 12 -3 29 -6 37 -13
47 -19 60 -27 60 -5 0 -9 8 -9 18 0 10 -4 22 -9 28 -5 5 -11 20 -13 34 -1 14
-7 28 -11 31 -5 3 -10 12 -11 20 -3 16 -7 25 -48 134 -17 44 -31 85 -32 90 -1
6 -13 35 -27 65 -13 30 -23 58 -21 63 1 4 -2 7 -7 7 -5 0 -12 11 -15 25 -4 15
-20 53 -36 86 -16 33 -34 76 -40 95 -6 18 -15 34 -20 34 -6 0 -19 39 -24 73
-1 4 -8 12 -16 17 -8 5 -11 10 -6 10 5 0 3 6 -3 13 -6 8 -8 17 -4 20 3 4 2 7
-4 7 -10 0 -26 36 -24 53 1 4 -4 7 -11 7 -6 0 -8 3 -5 6 4 4 -2 19 -12 33 -15
22 -28 49 -34 71 0 3 -5 10 -9 15 -19 24 -57 85 -52 85 3 0 -1 7 -8 15 -27 30
-38 44 -38 50 0 3 -11 18 -25 33 -14 15 -45 47 -68 72 -23 25 -48 58 -56 73
-8 15 -20 27 -26 27 -6 0 -20 8 -31 18 -10 9 -31 23 -45 30 -14 8 -41 27 -60
43 -19 16 -37 29 -40 29 -3 0 -19 11 -35 25 -16 14 -47 38 -69 53 -22 15 -45
32 -51 37 -6 6 -20 16 -30 23 -41 27 -230 162 -239 169 -5 5 -27 19 -47 31
l-37 23 4 77 c2 42 4 77 5 77 6 0 13 292 13 525 -1 264 -5 378 -18 520 -5 58
-11 134 -20 265 -4 44 -8 88 -11 97 -9 32 -14 64 -15 110 -1 27 -5 48 -8 48
-3 0 -6 10 -7 23 -2 48 -12 125 -17 134 -3 5 -7 28 -8 51 -2 23 -6 42 -9 42
-3 0 -7 19 -9 42 -1 23 -6 47 -11 54 -6 6 -8 13 -5 15 2 3 -3 34 -11 69 -9 36
-17 75 -18 87 -1 12 -5 25 -9 29 -4 4 -7 20 -7 36 0 15 -4 36 -10 46 -7 14
-32 114 -34 144 -1 3 -4 10 -8 14 -5 4 -8 15 -8 24 0 9 -8 43 -19 76 -54 171
-75 240 -77 247 -1 4 -3 9 -4 12 -1 3 -3 8 -4 13 -5 23 -30 88 -36 97 -5 6 -8
14 -8 18 0 7 -4 19 -28 82 -4 11 -6 23 -6 28 1 4 -2 7 -8 7 -6 0 -9 3 -9 8 1
4 0 10 -1 15 -1 4 -3 10 -5 15 -3 13 -17 46 -46 110 -16 35 -29 65 -29 68 0 8
-141 288 -148 294 -4 3 -8 11 -10 18 -1 7 -34 65 -72 129 -39 64 -73 128 -77
142 -5 21 -57 97 -83 121 -3 3 -17 21 -32 41 -15 20 -43 52 -62 73 -20 20 -36
39 -36 41 0 3 -19 25 -42 49 -24 24 -54 58 -68 75 -14 18 -34 41 -45 51 -27
26 -112 70 -119 63 -3 -4 -6 -1 -6 5 0 7 -4 12 -9 12 -5 0 -35 12 -67 27 -33
15 -61 28 -64 28 -8 1 -83 26 -100 33 -8 3 -19 6 -25 7 -5 1 -28 7 -50 13 -22
6 -51 12 -65 14 -14 2 -31 7 -38 12 -7 4 -45 10 -85 12 -40 3 -89 6 -109 8
-21 2 -40 1 -42 -2z m5934 -2832 c0 -5 -33 -19 -72 -30 -40 -12 -83 -26 -96
-31 -14 -6 -21 -6 -18 0 4 5 30 17 59 27 28 9 58 21 65 27 6 5 12 6 12 1 0 -4
5 -3 12 4 14 14 38 16 38 2z m-9483 -7314 c0 -8 -6 -12 -14 -9 -7 3 -10 9 -7
14 8 14 21 11 21 -5z m483 -1714 c0 -12 -3 -12 -15 -2 -8 7 -15 13 -15 15 0 1
7 2 15 2 8 0 15 -7 15 -15z m109 -118 c-6 -8 -15 -12 -18 -8 -3 4 0 9 7 11 6
3 9 10 6 15 -4 7 -2 8 5 4 9 -6 9 -11 0 -22z m51 -24 c0 -5 -2 -10 -4 -10 -3
0 -8 5 -11 10 -3 6 -1 10 4 10 6 0 11 -4 11 -10z m53 -67 c-4 -10 -2 -14 5 -9
6 3 14 1 18 -5 4 -8 3 -9 -4 -5 -7 4 -12 1 -12 -10 0 -13 -3 -14 -13 -5 -8 6
-17 7 -22 3 -4 -4 0 5 10 21 20 30 28 35 18 10z m-3913 -78 c0 -5 -5 -3 -10 5
-5 8 -10 20 -10 25 0 6 5 3 10 -5 5 -8 10 -19 10 -25z m57 -142 c-5 -4 -57
114 -56 125 0 4 14 -22 30 -57 16 -35 28 -66 26 -68z m3973 108 c0 -6 -4 -12
-8 -15 -5 -3 -9 1 -9 9 0 8 4 15 9 15 4 0 8 -4 8 -9z m70 -31 c0 -5 -2 -10 -4
-10 -3 0 -8 5 -11 10 -3 6 -1 10 4 10 6 0 11 -4 11 -10z m-687 -2912 c3 -18 8
-49 11 -68 6 -35 6 -35 -4 -5 -18 53 -28 105 -20 105 4 0 10 -15 13 -32z m153
-2116 c-8 -9 -18 -13 -22 -10 -8 9 19 37 29 31 5 -3 2 -12 -7 -21z m-7717
-6406 c1 -63 -6 -37 -12 44 -4 56 -3 65 3 35 5 -22 9 -58 9 -79z m8 -108 c-3
-7 -5 -2 -5 12 0 14 2 19 5 13 2 -7 2 -19 0 -25z m4703 -3022 c0 -2 -7 -7 -16
-10 -8 -3 -12 -2 -9 4 6 10 25 14 25 6z m4300 -2060 c0 -2 -6 -9 -14 -15 -11
-9 -16 -9 -22 0 -4 7 -3 9 4 5 6 -3 13 -2 17 4 6 10 15 14 15 6z m-140 -32 c0
-8 -19 -13 -24 -6 -3 5 1 9 9 9 8 0 15 -2 15 -3z m840 -1154 c0 -5 -2 -10 -4
-10 -3 0 -8 5 -11 10 -3 6 -1 10 4 10 6 0 11 -4 11 -10z m820 -21 c0 -15 -18
-19 -23 -6 -3 8 1 14 9 14 8 0 14 -4 14 -8z"/>
<path d="M10290 20940 c0 -5 5 -10 11 -10 5 0 7 5 4 10 -3 6 -8 10 -11 10 -2
0 -4 -4 -4 -10z"/>
<path d="M10336 20782 c-2 -4 -1 -14 4 -22 7 -11 9 -9 7 8 -1 24 -3 26 -11 14z"/>
<path d="M10076 20727 c3 -10 9 -15 12 -12 3 3 0 11 -7 18 -10 9 -11 8 -5 -6z"/>
<path d="M10274 20702 c4 -3 14 -7 22 -8 9 -1 13 0 10 4 -4 3 -14 7 -22 8 -9
1 -13 0 -10 -4z"/>
<path d="M10205 20680 c-3 -6 1 -7 9 -4 18 7 21 14 7 14 -6 0 -13 -4 -16 -10z"/>
<path d="M10210 20640 c0 -5 5 -10 11 -10 5 0 7 5 4 10 -3 6 -8 10 -11 10 -2
0 -4 -4 -4 -10z"/>
<path d="M10246 20622 c-3 -5 1 -9 9 -9 8 0 12 4 9 9 -3 4 -7 8 -9 8 -2 0 -6
-4 -9 -8z"/>
<path d="M10330 20619 c0 -5 5 -7 10 -4 6 3 10 8 10 11 0 2 -4 4 -10 4 -5 0
-10 -5 -10 -11z"/>
<path d="M10370 20620 c0 -5 5 -10 11 -10 5 0 7 5 4 10 -3 6 -8 10 -11 10 -2
0 -4 -4 -4 -10z"/>
<path d="M10190 20579 c0 -5 5 -7 10 -4 6 3 10 8 10 11 0 2 -4 4 -10 4 -5 0
-10 -5 -10 -11z"/>
<path d="M10215 20500 c3 -5 8 -10 11 -10 2 0 4 5 4 10 0 6 -5 10 -11 10 -5 0
-7 -4 -4 -10z"/>
<path d="M10295 20500 c3 -5 8 -10 11 -10 2 0 4 5 4 10 0 6 -5 10 -11 10 -5 0
-7 -4 -4 -10z"/>
<path d="M10330 20500 c0 -5 5 -10 11 -10 5 0 7 5 4 10 -3 6 -8 10 -11 10 -2
0 -4 -4 -4 -10z"/>
<path d="M10560 20491 c0 -6 4 -13 10 -16 6 -3 7 1 4 9 -7 18 -14 21 -14 7z"/>
<path d="M9780 20486 c0 -2 8 -10 18 -17 15 -13 16 -12 3 4 -13 16 -21 21 -21
13z"/>
<path d="M10533 20475 c0 -8 4 -12 9 -9 5 3 6 10 3 15 -9 13 -12 11 -12 -6z"/>
<path d="M10135 20461 c-3 -5 -2 -12 3 -15 5 -3 9 1 9 9 0 17 -3 19 -12 6z"/>
<path d="M10295 20460 c-3 -5 -1 -10 4 -10 6 0 11 5 11 10 0 6 -2 10 -4 10 -3
0 -8 -4 -11 -10z"/>
<path d="M10399 20433 c-13 -16 -12 -17 4 -4 16 13 21 21 13 21 -2 0 -10 -8
-17 -17z"/>
<path d="M10166 20422 c-3 -5 1 -9 9 -9 8 0 12 4 9 9 -3 4 -7 8 -9 8 -2 0 -6
-4 -9 -8z"/>
<path d="M10435 20409 c-4 -6 -5 -12 -2 -15 2 -3 7 2 10 11 7 17 1 20 -8 4z"/>
<path d="M10115 20380 c-3 -5 -1 -10 4 -10 6 0 11 5 11 10 0 6 -2 10 -4 10 -3
0 -8 -4 -11 -10z"/>
<path d="M10215 20380 c3 -5 8 -10 11 -10 2 0 4 5 4 10 0 6 -5 10 -11 10 -5 0
-7 -4 -4 -10z"/>
<path d="M10474 20316 c1 -8 5 -18 8 -22 4 -3 5 1 4 10 -1 8 -5 18 -8 22 -4 3
-5 -1 -4 -10z"/>
<path d="M10133 20305 c0 -8 4 -12 9 -9 5 3 6 10 3 15 -9 13 -12 11 -12 -6z"/>
<path d="M10215 20300 c-3 -5 -1 -10 4 -10 6 0 11 5 11 10 0 6 -2 10 -4 10 -3
0 -8 -4 -11 -10z"/>
<path d="M10115 20269 c-4 -6 -5 -12 -2 -15 2 -3 7 2 10 11 7 17 1 20 -8 4z"/>
<path d="M10427 20259 c7 -7 15 -10 18 -7 3 3 -2 9 -12 12 -14 6 -15 5 -6 -5z"/>
<path d="M10495 20241 c-3 -5 -2 -12 3 -15 5 -3 9 1 9 9 0 17 -3 19 -12 6z"/>
<path d="M10135 20231 c-3 -5 -2 -12 3 -15 5 -3 9 1 9 9 0 17 -3 19 -12 6z"/>
<path d="M10174 20216 c1 -8 5 -18 8 -22 4 -3 5 1 4 10 -1 8 -5 18 -8 22 -4 3
-5 -1 -4 -10z"/>
<path d="M10250 20219 c0 -5 5 -7 10 -4 6 3 10 8 10 11 0 2 -4 4 -10 4 -5 0
-10 -5 -10 -11z"/>
<path d="M10255 20180 c3 -5 8 -10 11 -10 2 0 4 5 4 10 0 6 -5 10 -11 10 -5 0
-7 -4 -4 -10z"/>
<path d="M10195 20169 c-4 -6 -5 -12 -2 -15 2 -3 7 2 10 11 7 17 1 20 -8 4z"/>
<path d="M10225 20120 c-3 -6 1 -7 9 -4 18 7 21 14 7 14 -6 0 -13 -4 -16 -10z"/>
<path d="M10275 20121 c-3 -5 -2 -12 3 -15 5 -3 9 1 9 9 0 17 -3 19 -12 6z"/>
<path d="M10410 20121 c0 -6 4 -13 10 -16 6 -3 7 1 4 9 -7 18 -14 21 -14 7z"/>
<path d="M10176 20102 c-3 -4 4 -9 15 -9 23 -2 25 3 4 10 -8 4 -16 3 -19 -1z"/>
<path d="M10276 20078 c3 -5 10 -6 15 -3 13 9 11 12 -6 12 -8 0 -12 -4 -9 -9z"/>
<path d="M10315 20081 c-3 -5 -2 -12 3 -15 5 -3 9 1 9 9 0 17 -3 19 -12 6z"/>
<path d="M10176 20042 c-2 -4 -1 -14 4 -22 7 -11 9 -9 7 8 -1 24 -3 26 -11 14z"/>
<path d="M10386 20002 c-3 -5 1 -9 9 -9 8 0 12 4 9 9 -3 4 -7 8 -9 8 -2 0 -6
-4 -9 -8z"/>
<path d="M10246 19978 c3 -5 10 -6 15 -3 13 9 11 12 -6 12 -8 0 -12 -4 -9 -9z"/>
<path d="M10390 19976 c0 -2 8 -10 18 -17 15 -13 16 -12 3 4 -13 16 -21 21
-21 13z"/>
<path d="M10255 19951 c-3 -5 -2 -12 3 -15 5 -3 9 1 9 9 0 17 -3 19 -12 6z"/>
<path d="M10300 19926 c0 -2 8 -10 18 -17 15 -13 16 -12 3 4 -13 16 -21 21
-21 13z"/>
<path d="M10116 19893 c-6 -14 -5 -15 5 -6 7 7 10 15 7 18 -3 3 -9 -2 -12 -12z"/>
<path d="M10239 19853 c-12 -16 -12 -17 2 -6 9 7 20 9 24 5 5 -4 5 -1 1 6 -9
16 -11 15 -27 -5z"/>
<path d="M9915 19849 c-4 -6 -5 -12 -2 -15 2 -3 7 2 10 11 7 17 1 20 -8 4z"/>
<path d="M10393 19845 c0 -8 4 -12 9 -9 5 3 6 10 3 15 -9 13 -12 11 -12 -6z"/>
<path d="M10187 19839 c7 -7 15 -10 18 -7 3 3 -2 9 -12 12 -14 6 -15 5 -6 -5z"/>
<path d="M10430 19840 c0 -5 5 -10 11 -10 5 0 7 5 4 10 -3 6 -8 10 -11 10 -2
0 -4 -4 -4 -10z"/>
<path d="M9786 19798 c3 -5 10 -6 15 -3 13 9 11 12 -6 12 -8 0 -12 -4 -9 -9z"/>
<path d="M10435 19800 c3 -5 8 -10 11 -10 2 0 4 5 4 10 0 6 -5 10 -11 10 -5 0
-7 -4 -4 -10z"/>
<path d="M10274 19782 c4 -3 14 -7 22 -8 9 -1 13 0 10 4 -4 3 -14 7 -22 8 -9
1 -13 0 -10 -4z"/>
<path d="M10334 19782 c4 -3 14 -7 22 -8 9 -1 13 0 10 4 -4 3 -14 7 -22 8 -9
1 -13 0 -10 -4z"/>
<path d="M10425 19760 c-3 -6 1 -7 9 -4 18 7 21 14 7 14 -6 0 -13 -4 -16 -10z"/>
<path d="M10466 19762 c-3 -5 1 -9 9 -9 8 0 12 4 9 9 -3 4 -7 8 -9 8 -2 0 -6
-4 -9 -8z"/>
<path d="M10246 19738 c3 -5 10 -6 15 -3 13 9 11 12 -6 12 -8 0 -12 -4 -9 -9z"/>
<path d="M10206 19718 c3 -5 10 -6 15 -3 13 9 11 12 -6 12 -8 0 -12 -4 -9 -9z"/>
<path d="M10290 19720 c0 -5 5 -10 11 -10 5 0 7 5 4 10 -3 6 -8 10 -11 10 -2
0 -4 -4 -4 -10z"/>
<path d="M10410 19699 c0 -5 5 -7 10 -4 6 3 10 8 10 11 0 2 -4 4 -10 4 -5 0
-10 -5 -10 -11z"/>
<path d="M9796 19678 c3 -5 10 -6 15 -3 13 9 11 12 -6 12 -8 0 -12 -4 -9 -9z"/>
<path d="M10456 19658 c3 -4 11 -5 19 -1 21 7 19 12 -4 10 -11 0 -18 -5 -15
-9z"/>
<path d="M9876 19633 c-6 -14 -5 -15 5 -6 7 7 10 15 7 18 -3 3 -9 -2 -12 -12z"/>
<path d="M10370 19639 c0 -5 5 -7 10 -4 6 3 10 8 10 11 0 2 -4 4 -10 4 -5 0
-10 -5 -10 -11z"/>
<path d="M10506 19638 c3 -5 10 -6 15 -3 13 9 11 12 -6 12 -8 0 -12 -4 -9 -9z"/>
<path d="M10453 19625 c0 -8 4 -12 9 -9 5 3 6 10 3 15 -9 13 -12 11 -12 -6z"/>
<path d="M10276 19598 c3 -5 10 -6 15 -3 13 9 11 12 -6 12 -8 0 -12 -4 -9 -9z"/>
<path d="M10367 19599 c7 -7 15 -10 18 -7 3 3 -2 9 -12 12 -14 6 -15 5 -6 -5z"/>
<path d="M10413 19575 c0 -8 4 -12 9 -9 5 3 6 10 3 15 -9 13 -12 11 -12 -6z"/>
<path d="M10514 19582 c4 -3 14 -7 22 -8 9 -1 13 0 10 4 -4 3 -14 7 -22 8 -9
1 -13 0 -10 -4z"/>
<path d="M10456 19522 c-3 -5 1 -9 9 -9 8 0 12 4 9 9 -3 4 -7 8 -9 8 -2 0 -6
-4 -9 -8z"/>
<path d="M10510 19521 c0 -6 4 -13 10 -16 6 -3 7 1 4 9 -7 18 -14 21 -14 7z"/>
<path d="M10575 19480 c-3 -5 -1 -10 4 -10 6 0 11 5 11 10 0 6 -2 10 -4 10 -3
0 -8 -4 -11 -10z"/>
<path d="M9995 19400 c-3 -5 -1 -10 4 -10 6 0 11 5 11 10 0 6 -2 10 -4 10 -3
0 -8 -4 -11 -10z"/>
<path d="M10196 19318 c3 -5 10 -6 15 -3 13 9 11 12 -6 12 -8 0 -12 -4 -9 -9z"/>
<path d="M10716 19073 c-6 -14 -5 -15 5 -6 7 7 10 15 7 18 -3 3 -9 -2 -12 -12z"/>
<path d="M11070 18684 c-25 -15 -25 -15 -1 -8 15 4 21 2 17 -4 -3 -6 -2 -13 4
-17 6 -4 8 -11 4 -16 -3 -5 -2 -9 3 -8 24 4 35 -2 29 -17 -6 -14 -4 -15 10 -4
14 12 13 15 -11 27 -14 8 -23 18 -20 23 3 5 1 11 -5 15 -6 4 -8 11 -5 16 8 12
5 11 -25 -7z"/>
<path d="M11114 18582 c4 -3 14 -7 22 -8 9 -1 13 0 10 4 -4 3 -14 7 -22 8 -9
1 -13 0 -10 -4z"/>
<path d="M11315 18441 c-6 -10 11 -24 33 -27 10 -2 8 3 -4 17 -20 22 -21 22
-29 10z"/>
<path d="M8620 8509 c0 -5 5 -7 10 -4 6 3 10 8 10 11 0 2 -4 4 -10 4 -5 0 -10
-5 -10 -11z"/>
<path d="M7745 4480 c3 -5 8 -10 11 -10 2 0 4 5 4 10 0 6 -5 10 -11 10 -5 0
-7 -4 -4 -10z"/>
<path d="M8060 3280 c0 -5 5 -10 11 -10 5 0 7 5 4 10 -3 6 -8 10 -11 10 -2 0
-4 -4 -4 -10z"/>
<path d="M10590 1809 c0 -5 5 -7 10 -4 6 3 10 8 10 11 0 2 -4 4 -10 4 -5 0
-10 -5 -10 -11z"/>
<path d="M14835 1060 c-3 -5 -1 -10 4 -10 6 0 11 5 11 10 0 6 -2 10 -4 10 -3
0 -8 -4 -11 -10z"/>
<path d="M12806 607 c3 -10 9 -15 12 -12 3 3 0 11 -7 18 -10 9 -11 8 -5 -6z"/>
<path d="M14225 610 c-3 -5 1 -10 10 -10 9 0 13 5 10 10 -3 6 -8 10 -10 10 -2
0 -7 -4 -10 -10z"/>
<path d="M13175 509 c-4 -6 -5 -12 -2 -15 2 -3 7 2 10 11 7 17 1 20 -8 4z"/>
</g>
</svg>
