<svg xmlns="http://www.w3.org/2000/svg" version="1.1" xmlns:xlink="http://www.w3.org/1999/xlink" xmlns:svgjs="http://svgjs.com/svgjs" width="1440" height="560" preserveAspectRatio="none" viewBox="0 0 1440 560">
    <g mask="url(&quot;#SvgjsMask1009&quot;)" fill="none">
        <rect width="1440" height="560" x="0" y="0" fill="rgba(222, 245, 253, 1)"></rect>
        <path d="M18.21 -3.53L83.16 33.97L83.16 108.97L18.21 146.47L-46.74 108.97L-46.74 33.97zM18.21 221.47L83.16 258.97L83.16 333.97L18.21 371.47L-46.74 333.97L-46.74 258.97zM148.12 221.47L213.07 258.97L213.07 333.97L148.12 371.47L83.16 333.97L83.16 258.97zM148.12 446.47L213.07 483.97L213.07 558.97L148.12 596.47L83.16 558.97L83.16 483.97zM342.98 108.97L407.93 146.47L407.93 221.47L342.98 258.97L278.02 221.47L278.02 146.47zM278.02 221.47L342.98 258.97L342.98 333.97L278.02 371.47L213.07 333.97L213.07 258.97zM407.93 221.47L472.89 258.97L472.89 333.97L407.93 371.47L342.98 333.97L342.98 258.97zM407.93 446.47L472.89 483.97L472.89 558.97L407.93 596.47L342.98 558.97L342.98 483.97zM537.84 221.47L602.79 258.97L602.79 333.97L537.84 371.47L472.89 333.97L472.89 258.97zM602.79 558.97L667.75 596.47L667.75 671.47L602.79 708.97L537.84 671.47L537.84 596.47zM732.7 333.97L797.66 371.47L797.66 446.47L732.7 483.97L667.75 446.47L667.75 371.47zM797.65 221.47L862.61 258.97L862.61 333.97L797.65 371.47L732.7 333.97L732.7 258.97zM927.56 -3.53L992.52 33.97L992.52 108.97L927.56 146.47L862.61 108.97L862.61 33.97zM927.56 221.47L992.52 258.97L992.52 333.97L927.56 371.47L862.61 333.97L862.61 258.97zM992.52 333.97L1057.47 371.47L1057.47 446.47L992.52 483.97L927.56 446.47L927.56 371.47zM992.52 558.97L1057.47 596.47L1057.47 671.47L992.52 708.97L927.56 671.47L927.56 596.47zM1122.42 108.97L1187.38 146.47L1187.38 221.47L1122.42 258.97L1057.47 221.47L1057.47 146.47zM1057.47 221.47L1122.42 258.97L1122.42 333.97L1057.47 371.47L992.52 333.97L992.52 258.97zM1187.38 -3.53L1252.33 33.97L1252.33 108.97L1187.38 146.47L1122.42 108.97L1122.42 33.97zM1252.33 108.97L1317.28 146.47L1317.28 221.47L1252.33 258.97L1187.38 221.47L1187.38 146.47zM1187.38 446.47L1252.33 483.97L1252.33 558.97L1187.38 596.47L1122.42 558.97L1122.42 483.97zM1317.29 -3.53L1382.24 33.97L1382.24 108.97L1317.29 146.47L1252.33 108.97L1252.33 33.97zM1382.24 108.97L1447.19 146.47L1447.19 221.47L1382.24 258.97L1317.29 221.47L1317.29 146.47zM1382.24 333.97L1447.19 371.47L1447.19 446.47L1382.24 483.97L1317.29 446.47L1317.29 371.47zM1447.19 -3.53L1512.15 33.97L1512.15 108.97L1447.19 146.47L1382.24 108.97L1382.24 33.97z" stroke="rgba(3, 48, 93, 0.18)" stroke-width="2"></path>
        <path d="M10.71 -3.53 a7.5 7.5 0 1 0 15 0 a7.5 7.5 0 1 0 -15 0zM75.66 33.97 a7.5 7.5 0 1 0 15 0 a7.5 7.5 0 1 0 -15 0zM75.66 108.97 a7.5 7.5 0 1 0 15 0 a7.5 7.5 0 1 0 -15 0zM10.71 146.47 a7.5 7.5 0 1 0 15 0 a7.5 7.5 0 1 0 -15 0zM-54.24 108.97 a7.5 7.5 0 1 0 15 0 a7.5 7.5 0 1 0 -15 0zM-54.24 33.97 a7.5 7.5 0 1 0 15 0 a7.5 7.5 0 1 0 -15 0zM10.71 221.47 a7.5 7.5 0 1 0 15 0 a7.5 7.5 0 1 0 -15 0zM75.66 258.97 a7.5 7.5 0 1 0 15 0 a7.5 7.5 0 1 0 -15 0zM75.66 333.97 a7.5 7.5 0 1 0 15 0 a7.5 7.5 0 1 0 -15 0zM10.71 371.47 a7.5 7.5 0 1 0 15 0 a7.5 7.5 0 1 0 -15 0zM-54.24 333.97 a7.5 7.5 0 1 0 15 0 a7.5 7.5 0 1 0 -15 0zM-54.24 258.97 a7.5 7.5 0 1 0 15 0 a7.5 7.5 0 1 0 -15 0zM140.62 221.47 a7.5 7.5 0 1 0 15 0 a7.5 7.5 0 1 0 -15 0zM205.57 258.97 a7.5 7.5 0 1 0 15 0 a7.5 7.5 0 1 0 -15 0zM205.57 333.97 a7.5 7.5 0 1 0 15 0 a7.5 7.5 0 1 0 -15 0zM140.62 371.47 a7.5 7.5 0 1 0 15 0 a7.5 7.5 0 1 0 -15 0zM140.62 446.47 a7.5 7.5 0 1 0 15 0 a7.5 7.5 0 1 0 -15 0zM205.57 483.97 a7.5 7.5 0 1 0 15 0 a7.5 7.5 0 1 0 -15 0zM205.57 558.97 a7.5 7.5 0 1 0 15 0 a7.5 7.5 0 1 0 -15 0zM140.62 596.47 a7.5 7.5 0 1 0 15 0 a7.5 7.5 0 1 0 -15 0zM75.66 558.97 a7.5 7.5 0 1 0 15 0 a7.5 7.5 0 1 0 -15 0zM75.66 483.97 a7.5 7.5 0 1 0 15 0 a7.5 7.5 0 1 0 -15 0zM335.48 108.97 a7.5 7.5 0 1 0 15 0 a7.5 7.5 0 1 0 -15 0zM400.43 146.47 a7.5 7.5 0 1 0 15 0 a7.5 7.5 0 1 0 -15 0zM400.43 221.47 a7.5 7.5 0 1 0 15 0 a7.5 7.5 0 1 0 -15 0zM335.48 258.97 a7.5 7.5 0 1 0 15 0 a7.5 7.5 0 1 0 -15 0zM270.52 221.47 a7.5 7.5 0 1 0 15 0 a7.5 7.5 0 1 0 -15 0zM270.52 146.47 a7.5 7.5 0 1 0 15 0 a7.5 7.5 0 1 0 -15 0zM335.48 333.97 a7.5 7.5 0 1 0 15 0 a7.5 7.5 0 1 0 -15 0zM270.52 371.47 a7.5 7.5 0 1 0 15 0 a7.5 7.5 0 1 0 -15 0zM465.39 258.97 a7.5 7.5 0 1 0 15 0 a7.5 7.5 0 1 0 -15 0zM465.39 333.97 a7.5 7.5 0 1 0 15 0 a7.5 7.5 0 1 0 -15 0zM400.43 371.47 a7.5 7.5 0 1 0 15 0 a7.5 7.5 0 1 0 -15 0zM400.43 446.47 a7.5 7.5 0 1 0 15 0 a7.5 7.5 0 1 0 -15 0zM465.39 483.97 a7.5 7.5 0 1 0 15 0 a7.5 7.5 0 1 0 -15 0zM465.39 558.97 a7.5 7.5 0 1 0 15 0 a7.5 7.5 0 1 0 -15 0zM400.43 596.47 a7.5 7.5 0 1 0 15 0 a7.5 7.5 0 1 0 -15 0zM335.48 558.97 a7.5 7.5 0 1 0 15 0 a7.5 7.5 0 1 0 -15 0zM335.48 483.97 a7.5 7.5 0 1 0 15 0 a7.5 7.5 0 1 0 -15 0zM530.34 221.47 a7.5 7.5 0 1 0 15 0 a7.5 7.5 0 1 0 -15 0zM595.29 258.97 a7.5 7.5 0 1 0 15 0 a7.5 7.5 0 1 0 -15 0zM595.29 333.97 a7.5 7.5 0 1 0 15 0 a7.5 7.5 0 1 0 -15 0zM530.34 371.47 a7.5 7.5 0 1 0 15 0 a7.5 7.5 0 1 0 -15 0zM595.29 558.97 a7.5 7.5 0 1 0 15 0 a7.5 7.5 0 1 0 -15 0zM660.25 596.47 a7.5 7.5 0 1 0 15 0 a7.5 7.5 0 1 0 -15 0zM660.25 671.47 a7.5 7.5 0 1 0 15 0 a7.5 7.5 0 1 0 -15 0zM595.29 708.97 a7.5 7.5 0 1 0 15 0 a7.5 7.5 0 1 0 -15 0zM530.34 671.47 a7.5 7.5 0 1 0 15 0 a7.5 7.5 0 1 0 -15 0zM530.34 596.47 a7.5 7.5 0 1 0 15 0 a7.5 7.5 0 1 0 -15 0zM725.2 333.97 a7.5 7.5 0 1 0 15 0 a7.5 7.5 0 1 0 -15 0zM790.16 371.47 a7.5 7.5 0 1 0 15 0 a7.5 7.5 0 1 0 -15 0zM790.16 446.47 a7.5 7.5 0 1 0 15 0 a7.5 7.5 0 1 0 -15 0zM725.2 483.97 a7.5 7.5 0 1 0 15 0 a7.5 7.5 0 1 0 -15 0zM660.25 446.47 a7.5 7.5 0 1 0 15 0 a7.5 7.5 0 1 0 -15 0zM660.25 371.47 a7.5 7.5 0 1 0 15 0 a7.5 7.5 0 1 0 -15 0zM790.15 221.47 a7.5 7.5 0 1 0 15 0 a7.5 7.5 0 1 0 -15 0zM855.11 258.97 a7.5 7.5 0 1 0 15 0 a7.5 7.5 0 1 0 -15 0zM855.11 333.97 a7.5 7.5 0 1 0 15 0 a7.5 7.5 0 1 0 -15 0zM790.15 371.47 a7.5 7.5 0 1 0 15 0 a7.5 7.5 0 1 0 -15 0zM725.2 258.97 a7.5 7.5 0 1 0 15 0 a7.5 7.5 0 1 0 -15 0zM920.06 -3.53 a7.5 7.5 0 1 0 15 0 a7.5 7.5 0 1 0 -15 0zM985.02 33.97 a7.5 7.5 0 1 0 15 0 a7.5 7.5 0 1 0 -15 0zM985.02 108.97 a7.5 7.5 0 1 0 15 0 a7.5 7.5 0 1 0 -15 0zM920.06 146.47 a7.5 7.5 0 1 0 15 0 a7.5 7.5 0 1 0 -15 0zM855.11 108.97 a7.5 7.5 0 1 0 15 0 a7.5 7.5 0 1 0 -15 0zM855.11 33.97 a7.5 7.5 0 1 0 15 0 a7.5 7.5 0 1 0 -15 0zM920.06 221.47 a7.5 7.5 0 1 0 15 0 a7.5 7.5 0 1 0 -15 0zM985.02 258.97 a7.5 7.5 0 1 0 15 0 a7.5 7.5 0 1 0 -15 0zM985.02 333.97 a7.5 7.5 0 1 0 15 0 a7.5 7.5 0 1 0 -15 0zM920.06 371.47 a7.5 7.5 0 1 0 15 0 a7.5 7.5 0 1 0 -15 0zM1049.97 371.47 a7.5 7.5 0 1 0 15 0 a7.5 7.5 0 1 0 -15 0zM1049.97 446.47 a7.5 7.5 0 1 0 15 0 a7.5 7.5 0 1 0 -15 0zM985.02 483.97 a7.5 7.5 0 1 0 15 0 a7.5 7.5 0 1 0 -15 0zM920.06 446.47 a7.5 7.5 0 1 0 15 0 a7.5 7.5 0 1 0 -15 0zM985.02 558.97 a7.5 7.5 0 1 0 15 0 a7.5 7.5 0 1 0 -15 0zM1049.97 596.47 a7.5 7.5 0 1 0 15 0 a7.5 7.5 0 1 0 -15 0zM1049.97 671.47 a7.5 7.5 0 1 0 15 0 a7.5 7.5 0 1 0 -15 0zM985.02 708.97 a7.5 7.5 0 1 0 15 0 a7.5 7.5 0 1 0 -15 0zM920.06 671.47 a7.5 7.5 0 1 0 15 0 a7.5 7.5 0 1 0 -15 0zM920.06 596.47 a7.5 7.5 0 1 0 15 0 a7.5 7.5 0 1 0 -15 0zM1114.92 108.97 a7.5 7.5 0 1 0 15 0 a7.5 7.5 0 1 0 -15 0zM1179.88 146.47 a7.5 7.5 0 1 0 15 0 a7.5 7.5 0 1 0 -15 0zM1179.88 221.47 a7.5 7.5 0 1 0 15 0 a7.5 7.5 0 1 0 -15 0zM1114.92 258.97 a7.5 7.5 0 1 0 15 0 a7.5 7.5 0 1 0 -15 0zM1049.97 221.47 a7.5 7.5 0 1 0 15 0 a7.5 7.5 0 1 0 -15 0zM1049.97 146.47 a7.5 7.5 0 1 0 15 0 a7.5 7.5 0 1 0 -15 0zM1114.92 333.97 a7.5 7.5 0 1 0 15 0 a7.5 7.5 0 1 0 -15 0zM1179.88 -3.53 a7.5 7.5 0 1 0 15 0 a7.5 7.5 0 1 0 -15 0zM1244.83 33.97 a7.5 7.5 0 1 0 15 0 a7.5 7.5 0 1 0 -15 0zM1244.83 108.97 a7.5 7.5 0 1 0 15 0 a7.5 7.5 0 1 0 -15 0zM1114.92 33.97 a7.5 7.5 0 1 0 15 0 a7.5 7.5 0 1 0 -15 0zM1309.78 146.47 a7.5 7.5 0 1 0 15 0 a7.5 7.5 0 1 0 -15 0zM1309.78 221.47 a7.5 7.5 0 1 0 15 0 a7.5 7.5 0 1 0 -15 0zM1244.83 258.97 a7.5 7.5 0 1 0 15 0 a7.5 7.5 0 1 0 -15 0zM1179.88 446.47 a7.5 7.5 0 1 0 15 0 a7.5 7.5 0 1 0 -15 0zM1244.83 483.97 a7.5 7.5 0 1 0 15 0 a7.5 7.5 0 1 0 -15 0zM1244.83 558.97 a7.5 7.5 0 1 0 15 0 a7.5 7.5 0 1 0 -15 0zM1179.88 596.47 a7.5 7.5 0 1 0 15 0 a7.5 7.5 0 1 0 -15 0zM1114.92 558.97 a7.5 7.5 0 1 0 15 0 a7.5 7.5 0 1 0 -15 0zM1114.92 483.97 a7.5 7.5 0 1 0 15 0 a7.5 7.5 0 1 0 -15 0zM1309.79 -3.53 a7.5 7.5 0 1 0 15 0 a7.5 7.5 0 1 0 -15 0zM1374.74 33.97 a7.5 7.5 0 1 0 15 0 a7.5 7.5 0 1 0 -15 0zM1374.74 108.97 a7.5 7.5 0 1 0 15 0 a7.5 7.5 0 1 0 -15 0zM1309.79 146.47 a7.5 7.5 0 1 0 15 0 a7.5 7.5 0 1 0 -15 0zM1439.69 146.47 a7.5 7.5 0 1 0 15 0 a7.5 7.5 0 1 0 -15 0zM1439.69 221.47 a7.5 7.5 0 1 0 15 0 a7.5 7.5 0 1 0 -15 0zM1374.74 258.97 a7.5 7.5 0 1 0 15 0 a7.5 7.5 0 1 0 -15 0zM1309.79 221.47 a7.5 7.5 0 1 0 15 0 a7.5 7.5 0 1 0 -15 0zM1374.74 333.97 a7.5 7.5 0 1 0 15 0 a7.5 7.5 0 1 0 -15 0zM1439.69 371.47 a7.5 7.5 0 1 0 15 0 a7.5 7.5 0 1 0 -15 0zM1439.69 446.47 a7.5 7.5 0 1 0 15 0 a7.5 7.5 0 1 0 -15 0zM1374.74 483.97 a7.5 7.5 0 1 0 15 0 a7.5 7.5 0 1 0 -15 0zM1309.79 446.47 a7.5 7.5 0 1 0 15 0 a7.5 7.5 0 1 0 -15 0zM1309.79 371.47 a7.5 7.5 0 1 0 15 0 a7.5 7.5 0 1 0 -15 0zM1439.69 -3.53 a7.5 7.5 0 1 0 15 0 a7.5 7.5 0 1 0 -15 0zM1504.65 33.97 a7.5 7.5 0 1 0 15 0 a7.5 7.5 0 1 0 -15 0zM1504.65 108.97 a7.5 7.5 0 1 0 15 0 a7.5 7.5 0 1 0 -15 0z" fill="rgba(3, 48, 93, 0.18)"></path>
        <path d="M80.29 340.81L123.59 365.81L123.59 415.81L80.29 440.81L36.99 415.81L36.99 365.81zM36.99 415.81L80.29 440.81L80.29 490.81L36.99 515.81L-6.31 490.81L-6.31 440.81zM166.9 190.81L210.2 215.81L210.2 265.81L166.9 290.81L123.59 265.81L123.59 215.81zM166.9 340.81L210.2 365.81L210.2 415.81L166.9 440.81L123.59 415.81L123.59 365.81zM210.2 265.81L253.5 290.81L253.5 340.81L210.2 365.81L166.9 340.81L166.9 290.81zM210.2 415.81L253.5 440.81L253.5 490.81L210.2 515.81L166.9 490.81L166.9 440.81zM296.81 -34.19L340.11 -9.19L340.11 40.81L296.81 65.81L253.5 40.81L253.5 -9.19zM340.11 190.81L383.41 215.81L383.41 265.81L340.11 290.81L296.81 265.81L296.81 215.81zM513.32 40.81L556.62 65.81L556.62 115.81L513.32 140.81L470.02 115.81L470.02 65.81zM556.62 -34.19L599.92 -9.19L599.92 40.81L556.62 65.81L513.32 40.81L513.32 -9.19zM556.62 115.81L599.92 140.81L599.92 190.81L556.62 215.81L513.32 190.81L513.32 140.81zM816.44 -34.19L859.74 -9.19L859.74 40.81L816.44 65.81L773.13 40.81L773.13 -9.19zM946.34 40.81L989.65 65.81L989.65 115.81L946.34 140.81L903.04 115.81L903.04 65.81zM989.65 -34.19L1032.95 -9.19L1032.95 40.81L989.65 65.81L946.34 40.81L946.34 -9.19zM989.65 115.81L1032.95 140.81L1032.95 190.81L989.65 215.81L946.34 190.81L946.34 140.81zM1032.95 340.81L1076.25 365.81L1076.25 415.81L1032.95 440.81L989.65 415.81L989.65 365.81zM1076.25 -34.19L1119.55 -9.19L1119.55 40.81L1076.25 65.81L1032.95 40.81L1032.95 -9.19zM1119.55 40.81L1162.86 65.81L1162.86 115.81L1119.55 140.81L1076.25 115.81L1076.25 65.81zM1076.25 415.81L1119.55 440.81L1119.55 490.81L1076.25 515.81L1032.95 490.81L1032.95 440.81zM1162.86 265.81L1206.16 290.81L1206.16 340.81L1162.86 365.81L1119.55 340.81L1119.55 290.81zM1249.46 -34.19L1292.76 -9.19L1292.76 40.81L1249.46 65.81L1206.16 40.81L1206.16 -9.19zM1292.76 340.81L1336.07 365.81L1336.07 415.81L1292.76 440.81L1249.46 415.81L1249.46 365.81zM1292.76 490.81L1336.07 515.81L1336.07 565.81L1292.76 590.81L1249.46 565.81L1249.46 515.81zM1336.07 115.81L1379.37 140.81L1379.37 190.81L1336.07 215.81L1292.76 190.81L1292.76 140.81zM1465.97 490.81L1509.28 515.81L1509.28 565.81L1465.97 590.81L1422.67 565.81L1422.67 515.81z" stroke="rgba(6, 80, 156, 0.3)" stroke-width="2"></path>
    </g>
    <defs>
        <mask id="SvgjsMask1009">
            <rect width="1440" height="560" fill="#ffffff"></rect>
        </mask>
    </defs>
</svg>