<svg xmlns="http://www.w3.org/2000/svg" version="1.1" xmlns:xlink="http://www.w3.org/1999/xlink" xmlns:svgjs="http://svgjs.com/svgjs" width="1440" height="800" preserveAspectRatio="none" viewBox="0 0 1440 800">
    <g mask="url(&quot;#SvgjsMask1027&quot;)" fill="none">
        <rect width="1440" height="800" x="0" y="0" fill="rgba(221, 244, 252, 1)"></rect>
        <path d="M1182 600L1181 947" stroke-width="10" stroke="url(#SvgjsLinearGradient1028)" stroke-linecap="round" class="Down"></path>
        <path d="M1106 86L1105 -376" stroke-width="8" stroke="url(#SvgjsLinearGradient1029)" stroke-linecap="round" class="Up"></path>
        <path d="M396 194L395 -51" stroke-width="6" stroke="url(#SvgjsLinearGradient1029)" stroke-linecap="round" class="Up"></path>
        <path d="M1412 114L1411 -480" stroke-width="10" stroke="url(#SvgjsLinearGradient1028)" stroke-linecap="round" class="Down"></path>
        <path d="M638 478L637 711" stroke-width="10" stroke="url(#SvgjsLinearGradient1028)" stroke-linecap="round" class="Down"></path>
        <path d="M230 623L229 860" stroke-width="10" stroke="url(#SvgjsLinearGradient1029)" stroke-linecap="round" class="Up"></path>
        <path d="M82 22L81 388" stroke-width="8" stroke="url(#SvgjsLinearGradient1028)" stroke-linecap="round" class="Down"></path>
        <path d="M757 253L756 771" stroke-width="8" stroke="url(#SvgjsLinearGradient1029)" stroke-linecap="round" class="Up"></path>
        <path d="M1061 57L1060 -393" stroke-width="10" stroke="url(#SvgjsLinearGradient1028)" stroke-linecap="round" class="Down"></path>
        <path d="M1235 589L1234 976" stroke-width="6" stroke="url(#SvgjsLinearGradient1028)" stroke-linecap="round" class="Down"></path>
        <path d="M267 553L266 995" stroke-width="6" stroke="url(#SvgjsLinearGradient1028)" stroke-linecap="round" class="Down"></path>
        <path d="M662 480L661 694" stroke-width="8" stroke="url(#SvgjsLinearGradient1028)" stroke-linecap="round" class="Down"></path>
        <path d="M1413 92L1412 497" stroke-width="8" stroke="url(#SvgjsLinearGradient1029)" stroke-linecap="round" class="Up"></path>
        <path d="M339 363L338 -146" stroke-width="8" stroke="url(#SvgjsLinearGradient1029)" stroke-linecap="round" class="Up"></path>
        <path d="M996 727L995 246" stroke-width="8" stroke="url(#SvgjsLinearGradient1028)" stroke-linecap="round" class="Down"></path>
        <path d="M1176 406L1175 683" stroke-width="6" stroke="url(#SvgjsLinearGradient1028)" stroke-linecap="round" class="Down"></path>
        <path d="M199 512L198 63" stroke-width="6" stroke="url(#SvgjsLinearGradient1029)" stroke-linecap="round" class="Up"></path>
        <path d="M764 185L763 -377" stroke-width="6" stroke="url(#SvgjsLinearGradient1029)" stroke-linecap="round" class="Up"></path>
        <path d="M158 717L157 943" stroke-width="8" stroke="url(#SvgjsLinearGradient1028)" stroke-linecap="round" class="Down"></path>
        <path d="M1259 45L1258 455" stroke-width="10" stroke="url(#SvgjsLinearGradient1029)" stroke-linecap="round" class="Up"></path>
        <path d="M135 331L134 769" stroke-width="6" stroke="url(#SvgjsLinearGradient1029)" stroke-linecap="round" class="Up"></path>
        <path d="M1024 788L1023 288" stroke-width="6" stroke="url(#SvgjsLinearGradient1028)" stroke-linecap="round" class="Down"></path>
        <path d="M1191 303L1190 -24" stroke-width="6" stroke="url(#SvgjsLinearGradient1029)" stroke-linecap="round" class="Up"></path>
        <path d="M502 268L501 473" stroke-width="10" stroke="url(#SvgjsLinearGradient1028)" stroke-linecap="round" class="Down"></path>
        <path d="M458 778L457 1274" stroke-width="10" stroke="url(#SvgjsLinearGradient1029)" stroke-linecap="round" class="Up"></path>
        <path d="M415 473L414 216" stroke-width="8" stroke="url(#SvgjsLinearGradient1029)" stroke-linecap="round" class="Up"></path>
        <path d="M897 687L896 184" stroke-width="8" stroke="url(#SvgjsLinearGradient1029)" stroke-linecap="round" class="Up"></path>
        <path d="M327 600L326 983" stroke-width="6" stroke="url(#SvgjsLinearGradient1028)" stroke-linecap="round" class="Down"></path>
        <path d="M536 362L535 -15" stroke-width="10" stroke="url(#SvgjsLinearGradient1029)" stroke-linecap="round" class="Up"></path>
        <path d="M559 349L558 567" stroke-width="10" stroke="url(#SvgjsLinearGradient1028)" stroke-linecap="round" class="Down"></path>
        <path d="M938 159L937 -177" stroke-width="6" stroke="url(#SvgjsLinearGradient1028)" stroke-linecap="round" class="Down"></path>
        <path d="M1124 14L1123 -455" stroke-width="6" stroke="url(#SvgjsLinearGradient1029)" stroke-linecap="round" class="Up"></path>
        <path d="M915 313L914 -152" stroke-width="6" stroke="url(#SvgjsLinearGradient1029)" stroke-linecap="round" class="Up"></path>
        <path d="M1364 715L1363 1164" stroke-width="8" stroke="url(#SvgjsLinearGradient1029)" stroke-linecap="round" class="Up"></path>
        <path d="M1256 536L1255 111" stroke-width="6" stroke="url(#SvgjsLinearGradient1029)" stroke-linecap="round" class="Up"></path>
        <path d="M1289 70L1288 -320" stroke-width="6" stroke="url(#SvgjsLinearGradient1028)" stroke-linecap="round" class="Down"></path>
    </g>
    <defs>
        <mask id="SvgjsMask1027">
            <rect width="1440" height="800" fill="#ffffff"></rect>
        </mask>
        <linearGradient x1="0%" y1="0%" x2="0%" y2="100%" id="SvgjsLinearGradient1028">
            <stop stop-color="rgba(28, 83, 142, 0)" offset="0"></stop>
            <stop stop-color="rgba(28, 83, 142, 0.49)" offset="1"></stop>
        </linearGradient>
        <linearGradient x1="0%" y1="100%" x2="0%" y2="0%" id="SvgjsLinearGradient1029">
            <stop stop-color="rgba(28, 83, 142, 0)" offset="0"></stop>
            <stop stop-color="rgba(28, 83, 142, 0.49)" offset="1"></stop>
        </linearGradient>
    </defs>
</svg>